<?xml version="1.0" encoding="utf-8" standalone="no"?>
<!DOCTYPE svg PUBLIC "-//W3C//DTD SVG 1.1//EN"
  "http://www.w3.org/Graphics/SVG/1.1/DTD/svg11.dtd">
<svg xmlns:xlink="http://www.w3.org/1999/xlink" width="462.398125pt" height="262.568pt" viewBox="0 0 462.398125 262.568" xmlns="http://www.w3.org/2000/svg" version="1.1">
 <metadata>
  <rdf:RDF xmlns:dc="http://purl.org/dc/elements/1.1/" xmlns:cc="http://creativecommons.org/ns#" xmlns:rdf="http://www.w3.org/1999/02/22-rdf-syntax-ns#">
   <cc:Work>
    <dc:type rdf:resource="http://purl.org/dc/dcmitype/StillImage"/>
    <dc:format>image/svg+xml</dc:format>
    <dc:creator>
     <cc:Agent>
      <dc:title>Matplotlib v3.11.2, https://matplotlib.org/</dc:title>
     </cc:Agent>
    </dc:creator>
   </cc:Work>
  </rdf:RDF>
 </metadata>
 <defs>
  <style type="text/css">*{stroke-linejoin: round; stroke-linecap: butt}</style>
 </defs>
 <g id="figure_1">
  <g id="patch_1">
   <path d="M 0 262.568 
L 462.398125 262.568 
L 462.398125 0 
L 0 0 
L 0 262.568 
z
" style="fill: none"/>
  </g>
  <g id="axes_1">
   <g id="patch_2">
    <path d="M 133.571875 219.768 
L 427.331875 219.768 
L 427.331875 31.272 
L 133.571875 31.272 
L 133.571875 219.768 
z
" style="fill: none"/>
   </g>
   <g id="matplotlib.axis_1">
    <g id="xtick_1">
     <g id="line2d_1"/>
     <g id="text_1">
      <!-- 0.2 -->
      <g style="fill: #6f7268" transform="translate(126.632031 235.828) scale(0.1 -0.1)">
       <defs>
        <path id="Lora-Regular-35e" d="M 1990 -102 
Q 1504 -102 1184 106 
Q 864 314 685 656 
Q 506 998 432 1408 
Q 358 1818 358 2221 
Q 358 2624 451 3040 
Q 544 3456 742 3805 
Q 941 4154 1254 4368 
Q 1568 4582 2016 4582 
Q 2483 4582 2793 4371 
Q 3104 4160 3286 3817 
Q 3469 3475 3545 3065 
Q 3622 2656 3622 2253 
Q 3622 1856 3532 1440 
Q 3443 1024 3251 675 
Q 3059 326 2748 112 
Q 2438 -102 1990 -102 
z
M 2029 147 
Q 2304 147 2483 320 
Q 2662 493 2768 781 
Q 2874 1069 2918 1417 
Q 2963 1766 2963 2118 
Q 2963 2509 2918 2899 
Q 2874 3290 2765 3616 
Q 2656 3942 2470 4140 
Q 2285 4339 2003 4339 
Q 1728 4339 1539 4166 
Q 1350 3994 1235 3706 
Q 1120 3418 1069 3066 
Q 1018 2714 1018 2355 
Q 1018 2086 1043 1785 
Q 1069 1485 1136 1193 
Q 1203 902 1318 665 
Q 1434 429 1606 288 
Q 1779 147 2029 147 
z
" transform="scale(0.015625)"/>
        <path id="Lora-Regular-294" d="M 781 -102 
Q 634 -102 522 16 
Q 410 134 410 307 
Q 410 480 525 601 
Q 640 723 787 723 
Q 947 723 1052 601 
Q 1158 480 1158 307 
Q 1158 134 1043 16 
Q 928 -102 781 -102 
z
" transform="scale(0.015625)"/>
        <path id="Lora-Regular-360" d="M 294 0 
Q 294 339 400 601 
Q 506 864 685 1085 
Q 864 1306 1091 1514 
Q 1318 1722 1555 1952 
Q 1971 2349 2156 2688 
Q 2342 3027 2342 3341 
Q 2342 3584 2275 3811 
Q 2208 4038 2035 4185 
Q 1862 4333 1555 4333 
Q 1293 4333 1088 4201 
Q 883 4070 813 3878 
Q 877 3814 902 3740 
Q 928 3667 928 3597 
Q 928 3514 857 3402 
Q 787 3290 614 3296 
Q 474 3302 397 3404 
Q 320 3507 320 3648 
Q 320 3834 470 4051 
Q 621 4269 918 4425 
Q 1216 4582 1658 4582 
Q 1997 4582 2304 4473 
Q 2611 4365 2806 4112 
Q 3002 3859 3002 3424 
Q 3002 3098 2717 2678 
Q 2432 2259 1747 1702 
Q 1312 1344 1033 1027 
Q 755 710 710 486 
L 1843 454 
Q 2157 448 2397 454 
Q 2637 461 2774 553 
Q 2912 646 2912 896 
L 3104 896 
L 3066 0 
L 294 0 
z
" transform="scale(0.015625)"/>
       </defs>
       <use xlink:href="#Lora-Regular-35e"/>
       <use xlink:href="#Lora-Regular-294" transform="translate(60.5 0)"/>
       <use xlink:href="#Lora-Regular-360" transform="translate(85.09375 0)"/>
      </g>
     </g>
    </g>
    <g id="xtick_2">
     <g id="line2d_2"/>
     <g id="text_2">
      <!-- 0.3 -->
      <g style="fill: #6f7268" transform="translate(175.492031 235.828) scale(0.1 -0.1)">
       <defs>
        <path id="Lora-Regular-361" d="M 1632 -102 
Q 1171 -102 870 35 
Q 570 173 426 377 
Q 282 582 282 768 
Q 282 915 358 1014 
Q 435 1114 576 1120 
Q 749 1133 813 1027 
Q 877 922 877 832 
Q 877 768 857 704 
Q 838 640 806 576 
Q 870 358 1097 262 
Q 1325 166 1587 166 
Q 2042 166 2314 416 
Q 2586 666 2586 1139 
Q 2586 1421 2496 1673 
Q 2406 1926 2163 2086 
Q 1920 2246 1453 2234 
Q 1402 2234 1344 2230 
Q 1286 2227 1216 2221 
L 1216 2509 
L 1478 2509 
Q 1818 2509 2010 2662 
Q 2202 2816 2285 3027 
Q 2368 3238 2368 3418 
Q 2368 3680 2301 3888 
Q 2234 4096 2067 4214 
Q 1901 4333 1606 4333 
Q 1318 4333 1113 4182 
Q 909 4032 858 3872 
Q 915 3808 937 3744 
Q 960 3680 960 3610 
Q 960 3533 896 3430 
Q 832 3328 666 3334 
Q 531 3334 460 3430 
Q 390 3526 390 3661 
Q 390 3840 531 4054 
Q 672 4269 963 4425 
Q 1254 4582 1696 4582 
Q 2042 4582 2336 4473 
Q 2630 4365 2809 4118 
Q 2989 3872 2989 3469 
Q 2989 3168 2758 2877 
Q 2528 2586 1939 2400 
Q 2547 2336 2896 2009 
Q 3245 1683 3245 1184 
Q 3245 749 3017 464 
Q 2790 179 2422 38 
Q 2054 -102 1632 -102 
z
" transform="scale(0.015625)"/>
       </defs>
       <use xlink:href="#Lora-Regular-35e"/>
       <use xlink:href="#Lora-Regular-294" transform="translate(60.5 0)"/>
       <use xlink:href="#Lora-Regular-361" transform="translate(85.09375 0)"/>
      </g>
     </g>
    </g>
    <g id="xtick_3">
     <g id="line2d_3"/>
     <g id="text_3">
      <!-- 0.4 -->
      <g style="fill: #6f7268" transform="translate(224.527031 235.828) scale(0.1 -0.1)">
       <defs>
        <path id="Lora-Regular-362" d="M 2605 698 
Q 2605 570 2601 454 
Q 2598 339 2579 243 
Q 2707 250 2828 253 
Q 2950 256 3072 262 
L 3072 0 
L 1466 0 
L 1466 211 
L 1510 211 
Q 1837 237 1929 451 
Q 2022 666 2022 1018 
L 2022 1235 
L 77 1235 
L 77 1549 
L 2394 4582 
L 2605 4582 
L 2605 1619 
L 3251 1613 
L 3251 1235 
L 2605 1235 
L 2605 698 
z
M 2010 3674 
L 499 1651 
L 2022 1632 
L 2022 3674 
L 2010 3674 
z
" transform="scale(0.015625)"/>
       </defs>
       <use xlink:href="#Lora-Regular-35e"/>
       <use xlink:href="#Lora-Regular-294" transform="translate(60.5 0)"/>
       <use xlink:href="#Lora-Regular-362" transform="translate(85.09375 0)"/>
      </g>
     </g>
    </g>
    <g id="xtick_4">
     <g id="line2d_4"/>
     <g id="text_4">
      <!-- 0.5 -->
      <g style="fill: #6f7268" transform="translate(273.472188 235.828) scale(0.1 -0.1)">
       <defs>
        <path id="Lora-Regular-363" d="M 1626 -102 
Q 1216 -102 928 35 
Q 640 173 486 377 
Q 333 582 333 768 
Q 333 915 409 1014 
Q 486 1114 627 1120 
Q 800 1133 864 1027 
Q 928 922 928 832 
Q 928 768 909 704 
Q 890 640 858 582 
Q 883 429 1017 329 
Q 1152 230 1328 185 
Q 1504 141 1651 147 
Q 1965 160 2157 317 
Q 2349 474 2441 717 
Q 2534 960 2534 1229 
Q 2534 1408 2505 1625 
Q 2477 1843 2377 2038 
Q 2278 2234 2080 2362 
Q 1882 2490 1542 2490 
Q 1434 2490 1277 2464 
Q 1120 2438 963 2387 
Q 806 2336 698 2266 
L 518 2432 
L 506 4480 
L 2163 4480 
Q 2528 4480 2665 4579 
Q 2803 4678 2803 4896 
L 2976 4896 
L 2938 4051 
L 800 4006 
L 800 2598 
Q 954 2662 1200 2720 
Q 1446 2778 1728 2778 
Q 2125 2778 2403 2653 
Q 2682 2528 2858 2320 
Q 3034 2112 3117 1859 
Q 3200 1606 3200 1344 
Q 3200 870 2979 547 
Q 2758 224 2400 61 
Q 2042 -102 1626 -102 
z
" transform="scale(0.015625)"/>
       </defs>
       <use xlink:href="#Lora-Regular-35e"/>
       <use xlink:href="#Lora-Regular-294" transform="translate(60.5 0)"/>
       <use xlink:href="#Lora-Regular-363" transform="translate(85.09375 0)"/>
      </g>
     </g>
    </g>
    <g id="xtick_5">
     <g id="line2d_5"/>
     <g id="text_5">
      <!-- 0.6 -->
      <g style="fill: #6f7268" transform="translate(322.317344 235.828) scale(0.1 -0.1)">
       <defs>
        <path id="Lora-Regular-364" d="M 1888 -102 
Q 1318 -102 982 166 
Q 646 435 502 931 
Q 358 1427 358 2106 
Q 358 2336 400 2653 
Q 442 2970 550 3306 
Q 659 3642 854 3933 
Q 1050 4224 1357 4403 
Q 1664 4582 2099 4582 
Q 2483 4582 2732 4444 
Q 2982 4307 3107 4118 
Q 3232 3930 3232 3770 
Q 3232 3635 3165 3542 
Q 3098 3450 2957 3437 
Q 2797 3430 2733 3526 
Q 2669 3622 2669 3706 
Q 2669 3840 2746 3974 
Q 2714 4090 2544 4218 
Q 2374 4346 2112 4346 
Q 1818 4346 1616 4192 
Q 1414 4038 1289 3788 
Q 1165 3539 1094 3254 
Q 1024 2970 995 2707 
Q 966 2445 960 2259 
Q 1120 2470 1392 2633 
Q 1664 2797 2035 2797 
Q 2419 2797 2678 2665 
Q 2938 2534 3094 2323 
Q 3251 2112 3318 1859 
Q 3386 1606 3386 1363 
Q 3386 966 3190 630 
Q 2995 294 2656 96 
Q 2317 -102 1888 -102 
z
M 1901 147 
Q 2202 147 2387 297 
Q 2573 448 2656 694 
Q 2739 941 2739 1222 
Q 2739 1402 2707 1622 
Q 2675 1843 2588 2044 
Q 2502 2246 2336 2377 
Q 2170 2509 1901 2509 
Q 1702 2509 1510 2409 
Q 1318 2310 1174 2150 
Q 1030 1990 966 1805 
Q 986 1498 1040 1203 
Q 1094 909 1200 672 
Q 1306 435 1478 291 
Q 1651 147 1901 147 
z
" transform="scale(0.015625)"/>
       </defs>
       <use xlink:href="#Lora-Regular-35e"/>
       <use xlink:href="#Lora-Regular-294" transform="translate(60.5 0)"/>
       <use xlink:href="#Lora-Regular-364" transform="translate(84.09375 0)"/>
      </g>
     </g>
    </g>
    <g id="xtick_6">
     <g id="line2d_6"/>
     <g id="text_6">
      <!-- 0.7 -->
      <g style="fill: #6f7268" transform="translate(371.972656 235.828) scale(0.1 -0.1)">
       <defs>
        <path id="Lora-Regular-365" d="M 1248 -102 
Q 1126 -90 1075 -13 
Q 1024 64 1024 179 
Q 1024 320 1097 544 
Q 1171 768 1273 1021 
Q 1376 1274 1459 1485 
Q 1581 1786 1747 2214 
Q 1914 2643 2115 3120 
Q 2317 3597 2528 4038 
L 838 4032 
Q 582 4026 438 3910 
Q 294 3795 294 3533 
L 141 3533 
L 141 4480 
L 2822 4480 
L 2822 4045 
Q 2592 3565 2422 3129 
Q 2253 2694 2118 2256 
Q 1984 1818 1862 1338 
Q 1741 858 1600 288 
Q 1562 134 1482 12 
Q 1402 -109 1248 -102 
z
" transform="scale(0.015625)"/>
       </defs>
       <use xlink:href="#Lora-Regular-35e"/>
       <use xlink:href="#Lora-Regular-294" transform="translate(60.5 0)"/>
       <use xlink:href="#Lora-Regular-365" transform="translate(81.890625 0)"/>
      </g>
     </g>
    </g>
    <g id="xtick_7">
     <g id="line2d_7"/>
     <g id="text_7">
      <!-- 0.8 -->
      <g style="fill: #6f7268" transform="translate(420.267031 235.828) scale(0.1 -0.1)">
       <defs>
        <path id="Lora-Regular-366" d="M 1766 -102 
Q 1542 -102 1299 -48 
Q 1056 6 848 128 
Q 640 250 509 454 
Q 378 659 378 960 
Q 378 1248 518 1488 
Q 659 1728 880 1923 
Q 1101 2118 1350 2272 
Q 864 2566 665 2857 
Q 467 3149 467 3424 
Q 467 3827 672 4083 
Q 877 4339 1190 4460 
Q 1504 4582 1824 4582 
Q 2150 4582 2435 4464 
Q 2720 4346 2896 4115 
Q 3072 3885 3072 3552 
Q 3072 3174 2819 2892 
Q 2566 2611 2208 2432 
Q 2496 2266 2739 2051 
Q 2982 1837 3129 1587 
Q 3277 1338 3277 1062 
Q 3277 659 3065 400 
Q 2854 141 2508 19 
Q 2163 -102 1766 -102 
z
M 1984 2560 
Q 2266 2752 2416 2995 
Q 2566 3238 2573 3475 
Q 2586 3891 2381 4108 
Q 2176 4326 1837 4333 
Q 1587 4339 1414 4227 
Q 1242 4115 1152 3939 
Q 1062 3763 1062 3565 
Q 1062 3213 1328 2953 
Q 1594 2694 1984 2560 
z
M 1779 154 
Q 2195 147 2422 358 
Q 2650 570 2650 941 
Q 2650 1274 2416 1590 
Q 2182 1907 1594 2157 
Q 1242 1901 1085 1606 
Q 928 1312 915 1075 
Q 890 666 1130 413 
Q 1370 160 1779 154 
z
" transform="scale(0.015625)"/>
       </defs>
       <use xlink:href="#Lora-Regular-35e"/>
       <use xlink:href="#Lora-Regular-294" transform="translate(60.5 0)"/>
       <use xlink:href="#Lora-Regular-366" transform="translate(85.09375 0)"/>
      </g>
     </g>
    </g>
    <g id="text_8">
     <!-- nDCG@10 (higher is better) -->
     <g style="fill: #6f7268" transform="translate(217.387031 252.628) scale(0.1 -0.1)">
      <defs>
       <path id="Lora-Regular-116" d="M 282 0 
L 282 192 
Q 480 192 557 291 
Q 634 390 646 566 
Q 659 742 659 973 
L 666 2432 
Q 666 2534 669 2636 
Q 672 2739 691 2848 
Q 576 2842 464 2835 
Q 352 2829 237 2822 
L 237 3091 
Q 518 3091 662 3116 
Q 806 3142 876 3180 
Q 947 3219 992 3264 
L 1178 3264 
Q 1190 3194 1193 3101 
Q 1197 3008 1203 2874 
Q 1408 3059 1689 3180 
Q 1971 3302 2246 3302 
Q 2803 3302 3059 2953 
Q 3315 2605 3315 1869 
L 3315 678 
Q 3315 550 3312 451 
Q 3309 352 3290 243 
Q 3392 250 3491 253 
Q 3590 256 3693 262 
L 3693 0 
L 2387 0 
L 2387 192 
Q 2586 192 2662 291 
Q 2739 390 2752 566 
Q 2765 742 2765 973 
L 2765 1869 
Q 2758 2419 2582 2700 
Q 2406 2982 2029 2976 
Q 1798 2970 1577 2854 
Q 1357 2739 1210 2560 
Q 1216 2509 1216 2445 
Q 1216 2381 1216 2310 
L 1210 678 
Q 1210 550 1206 451 
Q 1203 352 1184 243 
Q 1286 250 1385 253 
Q 1485 256 1587 262 
L 1587 0 
L 282 0 
z
" transform="scale(0.015625)"/>
       <path id="Lora-Regular-20" d="M 352 211 
Q 595 224 684 323 
Q 774 422 784 598 
Q 794 774 794 998 
L 794 3763 
Q 794 4032 813 4224 
Q 698 4218 582 4211 
Q 467 4205 352 4198 
L 352 4480 
L 1862 4486 
Q 2637 4493 3222 4249 
Q 3808 4006 4141 3507 
Q 4474 3008 4474 2234 
Q 4474 1792 4320 1389 
Q 4166 986 3859 675 
Q 3552 365 3094 182 
Q 2637 0 2035 0 
L 352 0 
L 352 211 
z
M 1350 755 
Q 1350 422 1331 256 
Q 1587 243 1782 243 
Q 1978 243 2016 243 
Q 2566 243 2979 508 
Q 3392 774 3619 1232 
Q 3846 1690 3846 2259 
Q 3846 2867 3625 3312 
Q 3405 3757 2950 4003 
Q 2496 4250 1792 4250 
Q 1555 4250 1462 4154 
Q 1370 4058 1360 3885 
Q 1350 3712 1350 3482 
L 1350 755 
z
" transform="scale(0.015625)"/>
       <path id="Lora-Regular-1a" d="M 3891 3053 
Q 3827 3654 3472 3987 
Q 3117 4320 2560 4320 
Q 2106 4320 1734 4067 
Q 1363 3814 1142 3353 
Q 922 2893 922 2266 
Q 922 1664 1152 1203 
Q 1382 742 1772 486 
Q 2163 230 2637 230 
Q 3053 230 3456 419 
Q 3859 608 4115 966 
L 4282 832 
Q 4006 454 3686 249 
Q 3366 45 3049 -28 
Q 2733 -102 2470 -102 
Q 1990 -102 1590 70 
Q 1190 243 899 553 
Q 608 864 451 1277 
Q 294 1690 294 2170 
Q 294 2624 432 3053 
Q 570 3482 845 3827 
Q 1120 4173 1539 4377 
Q 1958 4582 2515 4582 
Q 3219 4582 3808 4192 
L 3776 4538 
L 4122 4538 
L 4122 3053 
L 3891 3053 
z
" transform="scale(0.015625)"/>
       <path id="Lora-Regular-3a" d="M 2477 -102 
Q 1837 -102 1344 166 
Q 851 435 576 940 
Q 301 1446 301 2144 
Q 301 2598 438 3030 
Q 576 3462 854 3814 
Q 1133 4166 1552 4374 
Q 1971 4582 2528 4582 
Q 2874 4582 3229 4489 
Q 3584 4397 3853 4230 
L 3827 4538 
L 4179 4538 
L 4179 3072 
L 3949 3072 
Q 3923 3475 3734 3753 
Q 3546 4032 3245 4179 
Q 2944 4326 2573 4326 
Q 2118 4326 1744 4067 
Q 1370 3808 1149 3347 
Q 928 2886 928 2291 
Q 928 1690 1145 1216 
Q 1363 742 1750 473 
Q 2138 205 2643 205 
Q 2899 205 3193 281 
Q 3488 358 3738 525 
L 3738 1926 
Q 3629 1920 3513 1913 
Q 3398 1907 3290 1901 
L 3290 2182 
L 4736 2182 
L 4736 1971 
Q 4557 1971 4461 1878 
Q 4365 1786 4326 1654 
Q 4288 1523 4281 1398 
Q 4275 1274 4275 1210 
L 4275 230 
L 4102 230 
Q 4000 230 3821 192 
Q 3642 154 3411 64 
Q 3213 -13 2950 -57 
Q 2688 -102 2477 -102 
z
" transform="scale(0.015625)"/>
       <path id="Lora-Regular-2c5" d="M 2675 -608 
Q 2086 -621 1644 -445 
Q 1203 -269 908 44 
Q 614 358 467 771 
Q 320 1184 320 1645 
Q 320 2048 454 2461 
Q 589 2874 861 3229 
Q 1133 3584 1552 3811 
Q 1971 4038 2547 4070 
Q 3117 4102 3542 3936 
Q 3968 3770 4253 3469 
Q 4538 3168 4682 2793 
Q 4826 2419 4826 2035 
Q 4826 1530 4678 1203 
Q 4531 877 4313 697 
Q 4096 518 3869 457 
Q 3642 397 3482 422 
Q 3264 461 3155 573 
Q 3046 685 3017 841 
Q 2989 998 3011 1184 
Q 3034 1370 3066 1555 
Q 2867 973 2624 710 
Q 2381 448 2080 448 
Q 1811 448 1606 659 
Q 1402 870 1402 1338 
Q 1402 1805 1574 2201 
Q 1747 2598 2083 2841 
Q 2419 3085 2906 3085 
Q 3053 3085 3245 3065 
Q 3437 3046 3597 3002 
Q 3546 2566 3488 2128 
Q 3430 1690 3405 1370 
Q 3392 1203 3401 1046 
Q 3411 890 3465 778 
Q 3520 666 3635 640 
Q 3814 602 3980 730 
Q 4147 858 4256 1126 
Q 4365 1395 4371 1773 
Q 4390 2547 4140 3004 
Q 3891 3462 3459 3654 
Q 3027 3846 2496 3802 
Q 1971 3763 1593 3459 
Q 1216 3155 1014 2688 
Q 813 2221 813 1683 
Q 813 1165 966 787 
Q 1120 410 1382 163 
Q 1645 -83 1977 -201 
Q 2310 -320 2669 -333 
Q 2893 -339 3158 -300 
Q 3424 -262 3693 -131 
Q 3962 0 4186 262 
L 4339 102 
Q 4032 -250 3606 -422 
Q 3181 -595 2675 -608 
z
M 2189 691 
Q 2362 691 2531 896 
Q 2701 1101 2838 1427 
Q 2976 1754 3059 2128 
Q 3142 2502 3142 2835 
Q 2989 2893 2746 2893 
Q 2522 2893 2352 2755 
Q 2182 2618 2070 2397 
Q 1958 2176 1904 1910 
Q 1850 1645 1850 1395 
Q 1850 1075 1939 883 
Q 2029 691 2189 691 
z
" transform="scale(0.015625)"/>
       <path id="Lora-Regular-35f" d="M 474 0 
L 474 211 
Q 806 224 918 416 
Q 1030 608 1030 941 
L 1011 3962 
L 243 3469 
L 115 3654 
L 1363 4582 
L 1581 4582 
L 1587 698 
Q 1587 576 1584 461 
Q 1581 346 1568 256 
Q 1702 262 1836 268 
Q 1971 275 2106 282 
L 2106 0 
L 474 0 
z
" transform="scale(0.015625)"/>
       <path id="Lora-Regular-28d" transform="scale(0.015625)"/>
       <path id="Lora-Regular-2b0" d="M 1683 4864 
L 1843 4717 
Q 1350 4058 1113 3245 
Q 877 2432 877 1530 
Q 877 627 1113 -150 
Q 1350 -928 1843 -1587 
L 1683 -1734 
Q 1446 -1517 1190 -1181 
Q 934 -845 716 -416 
Q 499 13 364 505 
Q 230 998 230 1530 
Q 230 2061 364 2566 
Q 499 3072 716 3513 
Q 934 3955 1190 4300 
Q 1446 4646 1683 4864 
z
" transform="scale(0.015625)"/>
       <path id="Lora-Regular-f7" d="M 2336 192 
Q 2534 192 2611 291 
Q 2688 390 2701 566 
Q 2714 742 2714 973 
L 2714 1869 
Q 2714 2419 2538 2694 
Q 2362 2970 1984 2963 
Q 1747 2957 1520 2848 
Q 1293 2739 1152 2566 
L 1152 678 
Q 1152 550 1145 451 
Q 1139 352 1120 243 
Q 1222 250 1321 253 
Q 1421 256 1523 262 
L 1523 0 
L 218 0 
L 218 192 
Q 416 192 493 291 
Q 570 390 586 566 
Q 602 742 602 973 
L 602 4000 
Q 602 4102 605 4195 
Q 608 4288 621 4416 
Q 506 4410 394 4403 
Q 282 4397 166 4390 
L 166 4659 
Q 448 4659 605 4684 
Q 762 4710 842 4748 
Q 922 4787 966 4832 
L 1152 4832 
L 1152 2880 
Q 1363 3059 1644 3180 
Q 1926 3302 2202 3302 
Q 2758 3302 3004 2953 
Q 3251 2605 3258 1869 
L 3264 678 
Q 3264 550 3261 451 
Q 3258 352 3238 243 
Q 3341 250 3440 253 
Q 3539 256 3642 262 
L 3642 0 
L 2336 0 
L 2336 192 
z
" transform="scale(0.015625)"/>
       <path id="Lora-Regular-fb" d="M 282 192 
Q 480 192 557 291 
Q 634 390 646 566 
Q 659 742 659 973 
L 659 2432 
Q 659 2534 665 2627 
Q 672 2720 685 2848 
Q 570 2842 458 2835 
Q 346 2829 230 2822 
L 230 3091 
Q 512 3091 665 3116 
Q 819 3142 899 3180 
Q 979 3219 1024 3264 
L 1210 3264 
L 1210 678 
Q 1210 550 1206 451 
Q 1203 352 1184 243 
Q 1286 250 1385 253 
Q 1485 256 1587 262 
L 1587 0 
L 282 0 
L 282 192 
z
M 896 3898 
Q 761 3898 658 4006 
Q 556 4115 556 4275 
Q 556 4435 662 4547 
Q 768 4659 902 4659 
Q 1049 4659 1148 4547 
Q 1248 4435 1248 4275 
Q 1248 4115 1142 4006 
Q 1036 3898 896 3898 
z
" transform="scale(0.015625)"/>
       <path id="Lora-Regular-f0" d="M 1824 -1734 
Q 1248 -1734 896 -1606 
Q 544 -1478 384 -1280 
Q 224 -1082 224 -870 
Q 224 -672 317 -521 
Q 410 -371 547 -262 
Q 685 -154 813 -102 
Q 608 -32 489 86 
Q 371 205 371 403 
Q 371 627 550 822 
Q 730 1018 1011 1062 
Q 717 1203 541 1452 
Q 365 1702 365 2035 
Q 365 2419 563 2704 
Q 762 2989 1072 3145 
Q 1382 3302 1715 3302 
Q 2150 3302 2528 3066 
Q 2624 3334 2835 3510 
Q 3046 3686 3302 3686 
Q 3469 3686 3555 3600 
Q 3642 3514 3642 3366 
Q 3642 3296 3581 3197 
Q 3520 3098 3366 3104 
Q 3258 3104 3187 3168 
Q 3117 3232 3098 3328 
Q 2938 3302 2848 3177 
Q 2758 3053 2726 2906 
Q 2880 2765 2973 2566 
Q 3066 2368 3066 2144 
Q 3066 1786 2877 1504 
Q 2688 1222 2381 1065 
Q 2074 909 1715 909 
Q 1594 909 1504 925 
Q 1414 941 1286 941 
Q 1050 941 902 825 
Q 755 710 800 550 
Q 851 397 1113 355 
Q 1376 314 1818 294 
Q 2310 275 2662 179 
Q 3014 83 3203 -118 
Q 3392 -320 3392 -666 
Q 3392 -922 3254 -1123 
Q 3117 -1325 2889 -1459 
Q 2662 -1594 2384 -1664 
Q 2106 -1734 1824 -1734 
z
M 1734 1139 
Q 2093 1139 2269 1392 
Q 2445 1645 2445 2016 
Q 2445 2298 2361 2541 
Q 2278 2784 2115 2931 
Q 1952 3078 1702 3078 
Q 1357 3078 1168 2819 
Q 979 2560 979 2176 
Q 979 1715 1177 1427 
Q 1376 1139 1734 1139 
z
M 1818 -1485 
Q 2368 -1485 2675 -1280 
Q 2982 -1075 2982 -800 
Q 2982 -563 2822 -438 
Q 2662 -314 2387 -266 
Q 2112 -218 1754 -211 
Q 1581 -205 1414 -195 
Q 1248 -186 1094 -160 
Q 730 -403 730 -794 
Q 730 -1107 1027 -1296 
Q 1325 -1485 1818 -1485 
z
" transform="scale(0.015625)"/>
       <path id="Lora-Regular-da" d="M 1830 -102 
Q 1389 -102 1033 106 
Q 678 314 473 694 
Q 269 1075 269 1594 
Q 269 2042 470 2432 
Q 672 2822 1037 3062 
Q 1402 3302 1882 3302 
Q 2240 3302 2534 3148 
Q 2829 2995 3005 2681 
Q 3181 2368 3181 1888 
L 928 1850 
Q 922 1114 1171 669 
Q 1421 224 1984 224 
Q 2182 224 2390 294 
Q 2598 365 2777 486 
Q 2957 608 3066 755 
L 3219 627 
Q 3046 358 2803 198 
Q 2560 38 2304 -32 
Q 2048 -102 1830 -102 
z
M 947 2118 
L 2579 2118 
Q 2579 2349 2512 2563 
Q 2445 2778 2291 2915 
Q 2138 3053 1888 3053 
Q 1517 3053 1270 2832 
Q 1024 2611 947 2118 
z
" transform="scale(0.015625)"/>
       <path id="Lora-Regular-139" d="M 282 192 
Q 480 192 557 291 
Q 634 390 646 566 
Q 659 742 659 973 
L 659 2432 
Q 659 2534 662 2636 
Q 666 2739 685 2848 
Q 570 2842 458 2838 
Q 346 2835 230 2829 
L 230 3091 
L 429 3091 
Q 704 3091 809 3145 
Q 915 3200 986 3264 
L 1171 3264 
Q 1184 3162 1190 3011 
Q 1197 2861 1203 2630 
Q 1299 2790 1465 2944 
Q 1632 3098 1840 3200 
Q 2048 3302 2278 3302 
Q 2458 3302 2592 3206 
Q 2726 3110 2726 2899 
Q 2726 2816 2652 2701 
Q 2579 2586 2406 2592 
Q 2266 2598 2182 2704 
Q 2099 2810 2118 2950 
Q 1875 2963 1625 2764 
Q 1376 2566 1210 2253 
L 1216 678 
Q 1216 550 1213 451 
Q 1210 352 1190 243 
Q 1293 250 1392 253 
Q 1491 256 1594 262 
L 1594 0 
L 282 0 
L 282 192 
z
" transform="scale(0.015625)"/>
       <path id="Lora-Regular-13d" d="M 1594 -102 
Q 1274 -102 1024 -16 
Q 774 70 614 179 
L 640 -45 
L 371 -45 
L 333 1056 
L 531 1056 
Q 544 794 678 586 
Q 813 378 1024 262 
Q 1235 147 1478 147 
Q 1645 147 1805 201 
Q 1965 256 2073 368 
Q 2182 480 2182 653 
Q 2182 832 2076 950 
Q 1971 1069 1798 1158 
Q 1626 1248 1427 1325 
Q 1171 1427 918 1545 
Q 666 1664 499 1859 
Q 333 2054 333 2374 
Q 333 2509 384 2669 
Q 435 2829 556 2973 
Q 678 3117 889 3209 
Q 1101 3302 1427 3302 
Q 1600 3302 1811 3244 
Q 2022 3187 2221 3027 
L 2208 3270 
L 2477 3270 
L 2477 2150 
L 2272 2150 
Q 2259 2374 2169 2582 
Q 2080 2790 1907 2928 
Q 1734 3066 1459 3066 
Q 1165 3066 998 2918 
Q 832 2771 832 2579 
Q 832 2381 957 2249 
Q 1082 2118 1280 2022 
Q 1478 1926 1702 1837 
Q 1946 1734 2176 1612 
Q 2406 1491 2553 1308 
Q 2701 1126 2701 838 
Q 2701 518 2537 307 
Q 2374 96 2121 -3 
Q 1869 -102 1594 -102 
z
" transform="scale(0.015625)"/>
       <path id="Lora-Regular-cf" d="M 486 4000 
Q 486 4102 489 4195 
Q 493 4288 506 4416 
Q 390 4410 278 4403 
Q 166 4397 51 4390 
L 51 4659 
Q 333 4659 489 4684 
Q 646 4710 726 4748 
Q 806 4787 851 4832 
L 1037 4832 
L 1037 2925 
Q 1216 3104 1462 3203 
Q 1709 3302 2003 3302 
Q 2413 3302 2742 3104 
Q 3072 2906 3264 2541 
Q 3456 2176 3456 1677 
Q 3456 1133 3219 733 
Q 2982 333 2604 115 
Q 2227 -102 1792 -102 
Q 1574 -102 1315 -22 
Q 1056 58 851 288 
L 698 0 
L 474 0 
L 486 4000 
z
M 1037 1005 
Q 1037 666 1145 483 
Q 1254 301 1427 230 
Q 1600 160 1792 160 
Q 2253 160 2525 537 
Q 2797 915 2797 1517 
Q 2797 1952 2688 2281 
Q 2579 2611 2361 2800 
Q 2144 2989 1811 2989 
Q 1600 2989 1392 2889 
Q 1184 2790 1037 2624 
L 1037 1005 
z
" transform="scale(0.015625)"/>
       <path id="Lora-Regular-145" d="M 1485 -102 
Q 1338 -102 1184 -60 
Q 1030 -19 899 102 
Q 768 224 691 457 
Q 614 691 614 1075 
L 627 2931 
L 134 2925 
L 134 3200 
Q 301 3206 473 3324 
Q 646 3443 784 3648 
Q 922 3853 973 4096 
L 1190 4096 
L 1190 3200 
L 2266 3200 
L 2266 2950 
L 1190 2938 
L 1178 1158 
Q 1178 723 1290 492 
Q 1402 262 1664 262 
Q 1843 262 2000 364 
Q 2157 467 2278 646 
L 2451 506 
Q 2266 224 2083 96 
Q 1901 -32 1747 -67 
Q 1594 -102 1485 -102 
z
" transform="scale(0.015625)"/>
       <path id="Lora-Regular-2b1" d="M 275 -1734 
L 115 -1587 
Q 608 -928 845 -115 
Q 1082 698 1082 1600 
Q 1082 2502 845 3280 
Q 608 4058 115 4717 
L 275 4864 
Q 512 4646 768 4310 
Q 1024 3974 1241 3545 
Q 1459 3117 1593 2624 
Q 1728 2131 1728 1600 
Q 1728 1069 1593 563 
Q 1459 58 1241 -384 
Q 1024 -826 768 -1171 
Q 512 -1517 275 -1734 
z
" transform="scale(0.015625)"/>
      </defs>
      <use xlink:href="#Lora-Regular-116"/>
      <use xlink:href="#Lora-Regular-20" transform="translate(60.109375 0)"/>
      <use xlink:href="#Lora-Regular-1a" transform="translate(134.609375 0)"/>
      <use xlink:href="#Lora-Regular-3a" transform="translate(204.515625 0)"/>
      <use xlink:href="#Lora-Regular-2c5" transform="translate(280.609375 0)"/>
      <use xlink:href="#Lora-Regular-35f" transform="translate(360.203125 0)"/>
      <use xlink:href="#Lora-Regular-35e" transform="translate(396.609375 0)"/>
      <use xlink:href="#Lora-Regular-28d" transform="translate(458.703125 0)"/>
      <use xlink:href="#Lora-Regular-2b0" transform="translate(485 0)"/>
      <use xlink:href="#Lora-Regular-f7" transform="translate(515.5 0)"/>
      <use xlink:href="#Lora-Regular-fb" transform="translate(575.40625 0)"/>
      <use xlink:href="#Lora-Regular-f0" transform="translate(603.5 0)"/>
      <use xlink:href="#Lora-Regular-f7" transform="translate(661.203125 0)"/>
      <use xlink:href="#Lora-Regular-da" transform="translate(721.109375 0)"/>
      <use xlink:href="#Lora-Regular-139" transform="translate(775.3125 0)"/>
      <use xlink:href="#Lora-Regular-28d" transform="translate(818.609375 0)"/>
      <use xlink:href="#Lora-Regular-fb" transform="translate(844.90625 0)"/>
      <use xlink:href="#Lora-Regular-13d" transform="translate(873 0)"/>
      <use xlink:href="#Lora-Regular-28d" transform="translate(919.296875 0)"/>
      <use xlink:href="#Lora-Regular-cf" transform="translate(945.59375 0)"/>
      <use xlink:href="#Lora-Regular-da" transform="translate(1003.796875 0)"/>
      <use xlink:href="#Lora-Regular-145" transform="translate(1057.296875 0)"/>
      <use xlink:href="#Lora-Regular-145" transform="translate(1097 0)"/>
      <use xlink:href="#Lora-Regular-da" transform="translate(1135.703125 0)"/>
      <use xlink:href="#Lora-Regular-139" transform="translate(1189.90625 0)"/>
      <use xlink:href="#Lora-Regular-2b1" transform="translate(1230.796875 0)"/>
     </g>
    </g>
   </g>
   <g id="matplotlib.axis_2">
    <g id="ytick_1">
     <g id="line2d_8">
      <path d="M 133.571875 39.84 
L 427.331875 39.84 
" clip-path="url(#p449303773f)" style="fill: none; stroke: #e4e4da; stroke-width: 0.8; stroke-linecap: square"/>
     </g>
     <g id="line2d_9"/>
     <g id="text_9">
      <!-- BM25 (keywords) -->
      <g style="fill: #6f7268" transform="translate(48.414062 44.87) scale(0.1 -0.1)">
       <defs>
        <path id="Lora-Regular-19" d="M 352 0 
L 352 211 
Q 595 218 684 323 
Q 774 429 784 611 
Q 794 794 794 1030 
L 794 3718 
Q 794 4064 813 4224 
Q 698 4218 582 4211 
Q 467 4205 352 4198 
L 352 4480 
Q 704 4486 1059 4489 
Q 1414 4493 1798 4493 
Q 2541 4493 2960 4230 
Q 3379 3968 3366 3398 
Q 3366 3194 3248 2989 
Q 3130 2784 2896 2627 
Q 2662 2470 2310 2406 
L 2310 2394 
Q 3014 2394 3372 2070 
Q 3731 1747 3731 1254 
Q 3731 864 3532 582 
Q 3334 301 2995 150 
Q 2656 0 2221 0 
L 352 0 
z
M 1350 2451 
L 1818 2464 
Q 2182 2470 2393 2614 
Q 2605 2758 2697 2976 
Q 2790 3194 2784 3430 
Q 2778 3776 2627 3955 
Q 2477 4134 2259 4198 
Q 2042 4262 1830 4262 
Q 1517 4262 1433 4128 
Q 1350 3994 1350 3642 
L 1350 2451 
z
M 1331 256 
Q 1434 250 1578 246 
Q 1722 243 1846 243 
Q 1971 243 2010 243 
Q 2502 243 2806 489 
Q 3110 736 3110 1216 
Q 3110 1606 2956 1824 
Q 2803 2042 2553 2131 
Q 2304 2221 2010 2221 
Q 1818 2221 1661 2217 
Q 1504 2214 1350 2202 
L 1350 755 
Q 1350 422 1331 256 
z
" transform="scale(0.015625)"/>
        <path id="Lora-Regular-5d" d="M 2765 -64 
Q 2483 576 2195 1213 
Q 1907 1850 1632 2502 
Q 1498 2810 1373 3123 
Q 1248 3437 1126 3757 
Q 1126 3686 1123 3616 
Q 1120 3546 1120 3475 
Q 1114 3245 1104 2921 
Q 1094 2598 1081 2230 
Q 1069 1862 1062 1494 
Q 1056 1126 1050 800 
Q 1043 659 1040 518 
Q 1037 378 1024 256 
Q 1146 262 1264 268 
Q 1382 275 1504 282 
L 1504 0 
L 282 0 
L 282 211 
Q 480 218 573 298 
Q 666 378 691 512 
Q 717 646 723 800 
L 845 3718 
Q 851 3846 854 3974 
Q 858 4102 864 4224 
Q 749 4218 633 4214 
Q 518 4211 403 4205 
L 403 4480 
L 1382 4480 
L 2483 1939 
Q 2605 1651 2729 1366 
Q 2854 1082 2982 781 
L 2995 781 
Q 3066 954 3162 1194 
Q 3258 1434 3322 1606 
Q 3603 2310 3907 3017 
Q 4211 3725 4506 4480 
L 5453 4480 
L 5453 4269 
Q 5216 4275 5101 4121 
Q 4986 3968 5011 3571 
L 5178 659 
Q 5190 550 5190 448 
Q 5190 346 5190 262 
Q 5306 269 5424 272 
Q 5542 275 5658 282 
L 5658 0 
L 4224 0 
L 4224 211 
Q 4525 224 4595 416 
Q 4666 608 4646 973 
L 4518 3085 
Q 4512 3238 4502 3392 
Q 4493 3546 4480 3699 
Q 4461 3654 4438 3603 
Q 4416 3552 4397 3494 
L 2957 -64 
L 2765 -64 
z
" transform="scale(0.015625)"/>
        <path id="Lora-Regular-10c" d="M 224 0 
L 224 192 
Q 422 192 496 291 
Q 570 390 582 566 
Q 595 742 595 973 
L 602 4000 
Q 602 4102 605 4195 
Q 608 4288 621 4416 
Q 506 4410 394 4403 
Q 282 4397 166 4390 
L 166 4659 
Q 448 4659 601 4684 
Q 755 4710 835 4748 
Q 915 4787 960 4832 
L 1146 4832 
L 1146 1805 
L 1402 1805 
L 2182 2624 
Q 2291 2733 2380 2819 
Q 2470 2906 2560 2963 
L 2125 2944 
L 2125 3200 
L 3290 3200 
L 3290 3008 
Q 3072 2989 2883 2870 
Q 2694 2752 2537 2605 
Q 2381 2458 2266 2336 
L 1766 1811 
Q 1894 1754 1984 1664 
Q 2074 1574 2163 1466 
L 2618 883 
Q 2650 845 2730 736 
Q 2810 627 2922 499 
Q 3034 371 3158 281 
Q 3283 192 3392 192 
L 3392 0 
L 2810 0 
Q 2630 0 2470 185 
Q 2310 371 2131 602 
Q 1882 947 1709 1196 
Q 1536 1446 1408 1568 
L 1146 1555 
L 1146 678 
Q 1146 550 1142 451 
Q 1139 352 1120 243 
Q 1222 250 1324 253 
Q 1427 256 1530 262 
L 1530 0 
L 224 0 
z
" transform="scale(0.015625)"/>
        <path id="Lora-Regular-165" d="M 774 -1734 
Q 576 -1734 435 -1638 
Q 294 -1542 294 -1344 
Q 294 -1229 371 -1133 
Q 448 -1037 570 -1037 
Q 723 -1030 777 -1132 
Q 832 -1235 832 -1312 
Q 832 -1331 832 -1353 
Q 832 -1376 826 -1402 
Q 845 -1414 896 -1414 
Q 973 -1414 1062 -1350 
Q 1152 -1286 1222 -1165 
Q 1306 -1024 1418 -742 
Q 1530 -461 1670 -70 
L 672 2067 
Q 506 2426 432 2637 
Q 358 2848 333 2950 
L 26 2938 
L 26 3200 
L 1350 3200 
L 1350 3008 
L 1325 3008 
Q 1056 2989 1030 2806 
Q 1005 2624 1178 2253 
L 1926 646 
Q 2074 1056 2208 1456 
Q 2342 1856 2477 2253 
Q 2528 2394 2582 2544 
Q 2637 2694 2691 2812 
Q 2746 2931 2790 2963 
L 2349 2938 
L 2349 3200 
L 3354 3200 
L 3354 3008 
Q 3117 2918 2998 2710 
Q 2880 2502 2758 2176 
L 1958 -58 
Q 1766 -595 1606 -969 
Q 1446 -1344 1254 -1539 
Q 1062 -1734 774 -1734 
z
" transform="scale(0.015625)"/>
        <path id="Lora-Regular-15f" d="M 1382 -19 
L 544 2438 
Q 474 2643 435 2761 
Q 397 2880 378 2957 
L 38 2938 
L 38 3200 
L 1395 3200 
L 1395 3008 
Q 1107 3002 1078 2813 
Q 1050 2624 1152 2317 
L 1446 1421 
Q 1498 1267 1549 1110 
Q 1600 954 1651 800 
Q 1709 973 1769 1149 
Q 1830 1325 1888 1504 
L 2458 3200 
L 2720 3200 
L 3366 1338 
Q 3418 1197 3469 1049 
Q 3520 902 3571 755 
Q 3622 896 3670 1033 
Q 3718 1171 3763 1312 
L 4186 2528 
Q 4230 2656 4275 2771 
Q 4320 2886 4378 2957 
L 4006 2938 
L 4006 3200 
L 5120 3200 
L 5120 3008 
Q 4902 2995 4780 2931 
Q 4659 2867 4595 2761 
Q 4531 2656 4474 2502 
L 3552 -19 
L 3296 -19 
L 2688 1728 
Q 2630 1894 2572 2064 
Q 2515 2234 2458 2400 
Q 2400 2234 2342 2064 
Q 2285 1894 2227 1728 
L 1626 -19 
L 1382 -19 
z
" transform="scale(0.015625)"/>
        <path id="Lora-Regular-11d" d="M 1869 -102 
Q 1421 -102 1056 106 
Q 691 314 476 682 
Q 262 1050 262 1523 
Q 262 2029 473 2432 
Q 685 2835 1049 3068 
Q 1414 3302 1869 3302 
Q 2317 3302 2681 3088 
Q 3046 2874 3264 2509 
Q 3482 2144 3482 1677 
Q 3482 1184 3267 777 
Q 3053 371 2688 134 
Q 2323 -102 1869 -102 
z
M 1920 154 
Q 2259 154 2457 346 
Q 2656 538 2742 845 
Q 2829 1152 2829 1491 
Q 2829 1779 2774 2057 
Q 2720 2336 2605 2563 
Q 2490 2790 2307 2924 
Q 2125 3059 1869 3059 
Q 1536 3059 1325 2867 
Q 1114 2675 1014 2368 
Q 915 2061 915 1709 
Q 915 1312 1024 957 
Q 1133 602 1357 378 
Q 1581 154 1920 154 
z
" transform="scale(0.015625)"/>
        <path id="Lora-Regular-d6" d="M 1651 -102 
Q 1261 -102 947 93 
Q 634 288 451 653 
Q 269 1018 269 1510 
Q 269 2035 480 2438 
Q 691 2842 1065 3072 
Q 1440 3302 1914 3302 
Q 2125 3302 2333 3248 
Q 2541 3194 2662 3123 
L 2662 4000 
Q 2662 4102 2665 4195 
Q 2669 4288 2682 4416 
Q 2566 4410 2454 4403 
Q 2342 4397 2227 4390 
L 2227 4659 
Q 2509 4659 2662 4684 
Q 2816 4710 2896 4748 
Q 2976 4787 3021 4832 
L 3206 4832 
L 3206 678 
Q 3206 576 3200 473 
Q 3194 371 3181 243 
Q 3296 250 3408 256 
Q 3520 262 3635 269 
L 3635 0 
L 2720 0 
Q 2688 173 2675 333 
Q 2496 134 2233 16 
Q 1971 -102 1651 -102 
z
M 1882 211 
Q 2093 211 2307 332 
Q 2522 454 2662 634 
Q 2656 710 2656 796 
Q 2656 883 2656 986 
L 2662 2829 
Q 2509 2944 2326 2998 
Q 2144 3053 1952 3053 
Q 1632 3053 1395 2867 
Q 1158 2682 1036 2349 
Q 915 2016 928 1568 
Q 941 1178 1053 870 
Q 1165 563 1373 387 
Q 1581 211 1882 211 
z
" transform="scale(0.015625)"/>
       </defs>
       <use xlink:href="#Lora-Regular-19"/>
       <use xlink:href="#Lora-Regular-5d" transform="translate(61.296875 0)"/>
       <use xlink:href="#Lora-Regular-360" transform="translate(153.09375 0)"/>
       <use xlink:href="#Lora-Regular-363" transform="translate(206.796875 0)"/>
       <use xlink:href="#Lora-Regular-28d" transform="translate(261.296875 0)"/>
       <use xlink:href="#Lora-Regular-2b0" transform="translate(287.59375 0)"/>
       <use xlink:href="#Lora-Regular-10c" transform="translate(318.09375 0)"/>
       <use xlink:href="#Lora-Regular-da" transform="translate(371.09375 0)"/>
       <use xlink:href="#Lora-Regular-165" transform="translate(424.796875 0)"/>
       <use xlink:href="#Lora-Regular-15f" transform="translate(477.59375 0)"/>
       <use xlink:href="#Lora-Regular-11d" transform="translate(556.484375 0)"/>
       <use xlink:href="#Lora-Regular-139" transform="translate(614.984375 0)"/>
       <use xlink:href="#Lora-Regular-d6" transform="translate(657.578125 0)"/>
       <use xlink:href="#Lora-Regular-13d" transform="translate(717.375 0)"/>
       <use xlink:href="#Lora-Regular-2b1" transform="translate(761.078125 0)"/>
      </g>
     </g>
    </g>
    <g id="ytick_2">
     <g id="line2d_10">
      <path d="M 133.571875 82.68 
L 427.331875 82.68 
" clip-path="url(#p449303773f)" style="fill: none; stroke: #e4e4da; stroke-width: 0.8; stroke-linecap: square"/>
     </g>
     <g id="line2d_11"/>
     <g id="text_10">
      <!-- all-MiniLM-L6-v2 -->
      <g style="fill: #6f7268" transform="translate(44.760937 87.71) scale(0.1 -0.1)">
       <defs>
        <path id="Lora-Regular-b7" d="M 2227 0 
Q 2208 109 2201 192 
Q 2195 275 2182 365 
Q 1965 147 1712 22 
Q 1459 -102 1178 -102 
Q 691 -102 454 118 
Q 218 339 218 659 
Q 218 954 400 1168 
Q 582 1382 873 1520 
Q 1165 1658 1507 1725 
Q 1850 1792 2170 1786 
L 2170 2182 
Q 2170 2406 2131 2604 
Q 2093 2803 1965 2931 
Q 1837 3059 1555 3066 
Q 1370 3072 1174 2995 
Q 979 2918 890 2733 
Q 941 2682 957 2614 
Q 973 2547 973 2490 
Q 973 2413 909 2313 
Q 845 2214 685 2221 
Q 550 2221 480 2313 
Q 410 2406 410 2534 
Q 410 2752 573 2925 
Q 736 3098 1024 3200 
Q 1312 3302 1677 3302 
Q 2214 3302 2470 3017 
Q 2726 2733 2720 2118 
Q 2720 1760 2717 1398 
Q 2714 1037 2714 678 
Q 2714 576 2707 473 
Q 2701 371 2688 243 
Q 2803 250 2915 256 
Q 3027 262 3142 269 
L 3142 0 
L 2227 0 
z
M 2170 1568 
Q 1952 1562 1712 1514 
Q 1472 1466 1270 1370 
Q 1069 1274 944 1117 
Q 819 960 826 736 
Q 838 499 982 380 
Q 1126 262 1325 262 
Q 1587 262 1782 361 
Q 1978 461 2170 640 
Q 2163 710 2163 793 
Q 2163 877 2163 966 
Q 2163 998 2166 1171 
Q 2170 1344 2170 1568 
z
" transform="scale(0.015625)"/>
        <path id="Lora-Regular-10f" d="M 218 192 
Q 416 192 493 291 
Q 570 390 582 566 
Q 595 742 595 973 
L 595 4000 
Q 595 4102 598 4195 
Q 602 4288 614 4416 
Q 499 4410 387 4403 
Q 275 4397 160 4390 
L 160 4659 
Q 442 4659 598 4684 
Q 755 4710 835 4748 
Q 915 4787 960 4832 
L 1146 4832 
L 1152 678 
Q 1152 550 1145 451 
Q 1139 352 1120 243 
Q 1222 250 1321 253 
Q 1421 256 1523 262 
L 1523 0 
L 218 0 
L 218 192 
z
" transform="scale(0.015625)"/>
        <path id="Lora-Regular-2ab" d="M 429 1824 
L 429 2272 
L 2701 2272 
L 2701 1850 
L 429 1824 
z
" transform="scale(0.015625)"/>
        <path id="Lora-Regular-57" d="M 352 0 
L 352 211 
Q 595 224 684 323 
Q 774 422 784 598 
Q 794 774 794 998 
L 794 3763 
Q 794 4032 813 4224 
Q 698 4218 582 4211 
Q 467 4205 352 4198 
L 352 4480 
L 1792 4480 
L 1792 4269 
Q 1555 4262 1462 4160 
Q 1370 4058 1360 3885 
Q 1350 3712 1350 3482 
L 1350 736 
Q 1350 403 1331 237 
L 2528 256 
Q 2931 262 3139 512 
Q 3347 762 3347 1325 
L 3565 1325 
L 3526 0 
L 352 0 
z
" transform="scale(0.015625)"/>
        <path id="Lora-Regular-15e" d="M 1498 -19 
L 582 2067 
Q 422 2432 371 2640 
Q 320 2848 314 2957 
L 38 2938 
L 38 3200 
L 1216 3200 
L 1216 3008 
Q 1024 3008 969 2909 
Q 915 2810 953 2646 
Q 992 2483 1069 2298 
L 1562 1171 
Q 1613 1062 1661 944 
Q 1709 826 1754 698 
L 1760 698 
Q 1792 794 1833 902 
Q 1875 1011 1907 1114 
L 2419 2515 
Q 2470 2669 2528 2784 
Q 2586 2899 2611 2957 
L 2202 2938 
L 2202 3200 
L 3213 3200 
L 3213 3008 
Q 3002 3008 2880 2793 
Q 2758 2579 2592 2144 
L 1754 -19 
L 1498 -19 
z
" transform="scale(0.015625)"/>
       </defs>
       <use xlink:href="#Lora-Regular-b7"/>
       <use xlink:href="#Lora-Regular-10f" transform="translate(51.59375 0)"/>
       <use xlink:href="#Lora-Regular-10f" transform="translate(78.796875 0)"/>
       <use xlink:href="#Lora-Regular-2ab" transform="translate(106 0)"/>
       <use xlink:href="#Lora-Regular-5d" transform="translate(153.40625 0)"/>
       <use xlink:href="#Lora-Regular-fb" transform="translate(245.203125 0)"/>
       <use xlink:href="#Lora-Regular-116" transform="translate(273.296875 0)"/>
       <use xlink:href="#Lora-Regular-fb" transform="translate(334 0)"/>
       <use xlink:href="#Lora-Regular-57" transform="translate(361.390625 0)"/>
       <use xlink:href="#Lora-Regular-5d" transform="translate(419.1875 0)"/>
       <use xlink:href="#Lora-Regular-2ab" transform="translate(509.390625 0)"/>
       <use xlink:href="#Lora-Regular-57" transform="translate(556.703125 0)"/>
       <use xlink:href="#Lora-Regular-364" transform="translate(614.5 0)"/>
       <use xlink:href="#Lora-Regular-2ab" transform="translate(672.296875 0)"/>
       <use xlink:href="#Lora-Regular-15e" transform="translate(723.90625 0)"/>
       <use xlink:href="#Lora-Regular-360" transform="translate(774.40625 0)"/>
      </g>
     </g>
    </g>
    <g id="ytick_3">
     <g id="line2d_12">
      <path d="M 133.571875 125.52 
L 427.331875 125.52 
" clip-path="url(#p449303773f)" style="fill: none; stroke: #e4e4da; stroke-width: 0.8; stroke-linecap: square"/>
     </g>
     <g id="line2d_13"/>
     <g id="text_11">
      <!-- bge-small-en-v1.5 -->
      <g style="fill: #6f7268" transform="translate(43.648438 130.55) scale(0.1 -0.1)">
       <defs>
        <path id="Lora-Regular-115" d="M 282 0 
L 282 192 
Q 480 192 557 291 
Q 634 390 646 566 
Q 659 742 659 973 
L 659 2432 
Q 659 2534 662 2636 
Q 666 2739 685 2848 
Q 570 2842 458 2835 
Q 346 2829 230 2822 
L 230 3091 
Q 512 3091 656 3116 
Q 800 3142 870 3180 
Q 941 3219 986 3264 
L 1171 3264 
Q 1184 3200 1187 3117 
Q 1190 3034 1197 2925 
Q 1389 3091 1638 3196 
Q 1888 3302 2138 3302 
Q 2458 3302 2675 3187 
Q 2893 3072 3014 2874 
Q 3232 3053 3517 3177 
Q 3802 3302 4077 3302 
Q 4634 3302 4896 2966 
Q 5158 2630 5146 1869 
L 5139 678 
Q 5139 550 5136 451 
Q 5133 352 5114 243 
Q 5216 250 5315 253 
Q 5414 256 5517 262 
L 5517 0 
L 4211 0 
L 4211 192 
Q 4410 192 4486 291 
Q 4563 390 4576 566 
Q 4589 742 4589 973 
L 4589 1869 
Q 4589 2419 4413 2694 
Q 4237 2970 3859 2963 
Q 3661 2963 3462 2873 
Q 3264 2784 3117 2650 
Q 3149 2547 3165 2428 
Q 3181 2310 3181 2182 
Q 3174 1811 3174 1433 
Q 3174 1056 3168 678 
Q 3168 550 3165 451 
Q 3162 352 3142 243 
Q 3245 250 3344 253 
Q 3443 256 3546 262 
L 3546 0 
L 2240 0 
L 2240 192 
Q 2438 192 2512 291 
Q 2586 390 2602 566 
Q 2618 742 2618 973 
L 2624 1869 
Q 2630 2419 2464 2700 
Q 2298 2982 1920 2976 
Q 1722 2976 1530 2889 
Q 1338 2803 1203 2669 
Q 1203 2592 1206 2505 
Q 1210 2419 1210 2323 
L 1210 678 
Q 1210 550 1206 451 
Q 1203 352 1184 243 
Q 1286 250 1385 253 
Q 1485 256 1587 262 
L 1587 0 
L 282 0 
z
" transform="scale(0.015625)"/>
       </defs>
       <use xlink:href="#Lora-Regular-cf"/>
       <use xlink:href="#Lora-Regular-f0" transform="translate(58.203125 0)"/>
       <use xlink:href="#Lora-Regular-da" transform="translate(113 0)"/>
       <use xlink:href="#Lora-Regular-2ab" transform="translate(167.203125 0)"/>
       <use xlink:href="#Lora-Regular-13d" transform="translate(216.109375 0)"/>
       <use xlink:href="#Lora-Regular-115" transform="translate(262.40625 0)"/>
       <use xlink:href="#Lora-Regular-b7" transform="translate(351.8125 0)"/>
       <use xlink:href="#Lora-Regular-10f" transform="translate(403.40625 0)"/>
       <use xlink:href="#Lora-Regular-10f" transform="translate(430.609375 0)"/>
       <use xlink:href="#Lora-Regular-2ab" transform="translate(457.8125 0)"/>
       <use xlink:href="#Lora-Regular-da" transform="translate(506.71875 0)"/>
       <use xlink:href="#Lora-Regular-116" transform="translate(560.921875 0)"/>
       <use xlink:href="#Lora-Regular-2ab" transform="translate(621.625 0)"/>
       <use xlink:href="#Lora-Regular-15e" transform="translate(673.234375 0)"/>
       <use xlink:href="#Lora-Regular-35f" transform="translate(723.734375 0)"/>
       <use xlink:href="#Lora-Regular-294" transform="translate(760.140625 0)"/>
       <use xlink:href="#Lora-Regular-363" transform="translate(784.734375 0)"/>
      </g>
     </g>
    </g>
    <g id="ytick_4">
     <g id="line2d_14">
      <path d="M 133.571875 168.36 
L 427.331875 168.36 
" clip-path="url(#p449303773f)" style="fill: none; stroke: #e4e4da; stroke-width: 0.8; stroke-linecap: square"/>
     </g>
     <g id="line2d_15"/>
     <g id="text_12">
      <!-- e5-small-v2 -->
      <g style="fill: #6f7268" transform="translate(72.059375 173.39) scale(0.1 -0.1)">
       <use xlink:href="#Lora-Regular-da"/>
       <use xlink:href="#Lora-Regular-363" transform="translate(54.203125 0)"/>
       <use xlink:href="#Lora-Regular-2ab" transform="translate(108.703125 0)"/>
       <use xlink:href="#Lora-Regular-13d" transform="translate(157.609375 0)"/>
       <use xlink:href="#Lora-Regular-115" transform="translate(203.90625 0)"/>
       <use xlink:href="#Lora-Regular-b7" transform="translate(293.3125 0)"/>
       <use xlink:href="#Lora-Regular-10f" transform="translate(344.90625 0)"/>
       <use xlink:href="#Lora-Regular-10f" transform="translate(372.109375 0)"/>
       <use xlink:href="#Lora-Regular-2ab" transform="translate(399.3125 0)"/>
       <use xlink:href="#Lora-Regular-15e" transform="translate(450.921875 0)"/>
       <use xlink:href="#Lora-Regular-360" transform="translate(501.421875 0)"/>
      </g>
     </g>
    </g>
    <g id="ytick_5">
     <g id="line2d_16">
      <path d="M 133.571875 211.2 
L 427.331875 211.2 
" clip-path="url(#p449303773f)" style="fill: none; stroke: #e4e4da; stroke-width: 0.8; stroke-linecap: square"/>
     </g>
     <g id="line2d_17"/>
     <g id="text_13">
      <!-- static-retrieval-mrl-en-v1 -->
      <g style="fill: #6f7268" transform="translate(7.2 216.23) scale(0.1 -0.1)">
       <defs>
        <path id="Lora-Regular-d0" d="M 1843 -102 
Q 1414 -102 1052 93 
Q 691 288 476 656 
Q 262 1024 262 1542 
Q 262 1875 384 2188 
Q 506 2502 726 2755 
Q 947 3008 1254 3155 
Q 1562 3302 1933 3302 
Q 2291 3302 2556 3193 
Q 2822 3085 2969 2905 
Q 3117 2726 3117 2515 
Q 3117 2374 3040 2275 
Q 2963 2176 2816 2176 
Q 2656 2170 2589 2275 
Q 2522 2381 2522 2464 
Q 2522 2528 2541 2595 
Q 2560 2662 2618 2720 
Q 2566 2874 2438 2947 
Q 2310 3021 2172 3043 
Q 2035 3066 1946 3066 
Q 1510 3066 1212 2717 
Q 915 2368 915 1702 
Q 915 1274 1052 941 
Q 1190 608 1440 419 
Q 1690 230 2016 230 
Q 2317 230 2592 390 
Q 2867 550 3021 781 
L 3187 653 
Q 3021 384 2787 217 
Q 2554 51 2307 -25 
Q 2061 -102 1843 -102 
z
" transform="scale(0.015625)"/>
       </defs>
       <use xlink:href="#Lora-Regular-13d"/>
       <use xlink:href="#Lora-Regular-145" transform="translate(46.296875 0)"/>
       <use xlink:href="#Lora-Regular-b7" transform="translate(85 0)"/>
       <use xlink:href="#Lora-Regular-145" transform="translate(135.890625 0)"/>
       <use xlink:href="#Lora-Regular-fb" transform="translate(174.59375 0)"/>
       <use xlink:href="#Lora-Regular-d0" transform="translate(202.6875 0)"/>
       <use xlink:href="#Lora-Regular-2ab" transform="translate(255.890625 0)"/>
       <use xlink:href="#Lora-Regular-139" transform="translate(304.796875 0)"/>
       <use xlink:href="#Lora-Regular-da" transform="translate(347.390625 0)"/>
       <use xlink:href="#Lora-Regular-145" transform="translate(400.890625 0)"/>
       <use xlink:href="#Lora-Regular-139" transform="translate(439.59375 0)"/>
       <use xlink:href="#Lora-Regular-fb" transform="translate(482.890625 0)"/>
       <use xlink:href="#Lora-Regular-da" transform="translate(510.984375 0)"/>
       <use xlink:href="#Lora-Regular-15e" transform="translate(564.6875 0)"/>
       <use xlink:href="#Lora-Regular-b7" transform="translate(614.1875 0)"/>
       <use xlink:href="#Lora-Regular-10f" transform="translate(665.78125 0)"/>
       <use xlink:href="#Lora-Regular-2ab" transform="translate(692.984375 0)"/>
       <use xlink:href="#Lora-Regular-115" transform="translate(741.890625 0)"/>
       <use xlink:href="#Lora-Regular-139" transform="translate(831.296875 0)"/>
       <use xlink:href="#Lora-Regular-10f" transform="translate(874.1875 0)"/>
       <use xlink:href="#Lora-Regular-2ab" transform="translate(901.390625 0)"/>
       <use xlink:href="#Lora-Regular-da" transform="translate(950.296875 0)"/>
       <use xlink:href="#Lora-Regular-116" transform="translate(1004.5 0)"/>
       <use xlink:href="#Lora-Regular-2ab" transform="translate(1065.203125 0)"/>
       <use xlink:href="#Lora-Regular-15e" transform="translate(1116.8125 0)"/>
       <use xlink:href="#Lora-Regular-35f" transform="translate(1167.3125 0)"/>
      </g>
     </g>
    </g>
   </g>
   <g id="line2d_18">
    <defs>
     <path id="m35a4f114a3" d="M 0 3.5 
C 0.928211 3.5 1.81853 3.131218 2.474874 2.474874 
C 3.131218 1.81853 3.5 0.928211 3.5 0 
C 3.5 -0.928211 3.131218 -1.81853 2.474874 -2.474874 
C 1.81853 -3.131218 0.928211 -3.5 0 -3.5 
C -0.928211 -3.5 -1.81853 -3.131218 -2.474874 -2.474874 
C -3.131218 -1.81853 -3.5 -0.928211 -3.5 0 
C -3.5 0.928211 -3.131218 1.81853 -2.474874 2.474874 
C -1.81853 3.131218 -0.928211 3.5 0 3.5 
z
" style="stroke: #ffffff; stroke-width: 0.8"/>
    </defs>
    <g clip-path="url(#p449303773f)">
     <use xlink:href="#m35a4f114a3" x="362.069017" y="39.84" style="fill: #2f5d3f; stroke: #ffffff; stroke-width: 0.8"/>
     <use xlink:href="#m35a4f114a3" x="351.483852" y="82.68" style="fill: #2f5d3f; stroke: #ffffff; stroke-width: 0.8"/>
     <use xlink:href="#m35a4f114a3" x="378.618642" y="125.52" style="fill: #2f5d3f; stroke: #ffffff; stroke-width: 0.8"/>
     <use xlink:href="#m35a4f114a3" x="368.908923" y="168.36" style="fill: #2f5d3f; stroke: #ffffff; stroke-width: 0.8"/>
     <use xlink:href="#m35a4f114a3" x="326.217627" y="211.2" style="fill: #2f5d3f; stroke: #ffffff; stroke-width: 0.8"/>
    </g>
   </g>
   <g id="line2d_19">
    <defs>
     <path id="mfd3c3a0383" d="M -3.5 3.5 
L 3.5 3.5 
L 3.5 -3.5 
L -3.5 -3.5 
z
" style="stroke: #ffffff; stroke-width: 0.8; stroke-linejoin: miter"/>
    </defs>
    <g clip-path="url(#p449303773f)">
     <use xlink:href="#mfd3c3a0383" x="186.864158" y="39.84" style="fill: #6f7268; stroke: #ffffff; stroke-width: 0.8; stroke-linejoin: miter"/>
     <use xlink:href="#mfd3c3a0383" x="190.484086" y="82.68" style="fill: #6f7268; stroke: #ffffff; stroke-width: 0.8; stroke-linejoin: miter"/>
     <use xlink:href="#mfd3c3a0383" x="203.89737" y="125.52" style="fill: #6f7268; stroke: #ffffff; stroke-width: 0.8; stroke-linejoin: miter"/>
     <use xlink:href="#mfd3c3a0383" x="195.471836" y="168.36" style="fill: #6f7268; stroke: #ffffff; stroke-width: 0.8; stroke-linejoin: miter"/>
     <use xlink:href="#mfd3c3a0383" x="182.759129" y="211.2" style="fill: #6f7268; stroke: #ffffff; stroke-width: 0.8; stroke-linejoin: miter"/>
    </g>
   </g>
   <g id="patch_3">
    <path d="M 133.571875 219.768 
L 133.571875 31.272 
" style="fill: none; stroke: #b8b8ac; stroke-width: 0.8; stroke-linejoin: miter; stroke-linecap: square"/>
   </g>
   <g id="patch_4">
    <path d="M 133.571875 219.768 
L 427.331875 219.768 
" style="fill: none; stroke: #b8b8ac; stroke-width: 0.8; stroke-linejoin: miter; stroke-linecap: square"/>
   </g>
   <g id="text_14">
    <!-- 0.67 -->
    <g style="fill: #2f5d3f" transform="translate(355.04597 32.84) scale(0.075 -0.075)">
     <use xlink:href="#Lora-Regular-35e"/>
     <use xlink:href="#Lora-Regular-294" transform="translate(60.5 0)"/>
     <use xlink:href="#Lora-Regular-364" transform="translate(84.09375 0)"/>
     <use xlink:href="#Lora-Regular-365" transform="translate(141.1875 0)"/>
    </g>
   </g>
   <g id="text_15">
    <!-- 0.65 -->
    <g style="fill: #2f5d3f" transform="translate(344.119203 75.68) scale(0.075 -0.075)">
     <use xlink:href="#Lora-Regular-35e"/>
     <use xlink:href="#Lora-Regular-294" transform="translate(60.5 0)"/>
     <use xlink:href="#Lora-Regular-364" transform="translate(84.09375 0)"/>
     <use xlink:href="#Lora-Regular-363" transform="translate(141.890625 0)"/>
    </g>
   </g>
   <g id="text_16">
    <!-- 0.70 -->
    <g style="fill: #2f5d3f" transform="translate(371.490712 118.52) scale(0.075 -0.075)">
     <use xlink:href="#Lora-Regular-35e"/>
     <use xlink:href="#Lora-Regular-294" transform="translate(60.5 0)"/>
     <use xlink:href="#Lora-Regular-365" transform="translate(81.890625 0)"/>
     <use xlink:href="#Lora-Regular-35e" transform="translate(127.984375 0)"/>
    </g>
   </g>
   <g id="text_17">
    <!-- 0.68 -->
    <g style="fill: #2f5d3f" transform="translate(361.480407 161.36) scale(0.075 -0.075)">
     <use xlink:href="#Lora-Regular-35e"/>
     <use xlink:href="#Lora-Regular-294" transform="translate(60.5 0)"/>
     <use xlink:href="#Lora-Regular-364" transform="translate(84.09375 0)"/>
     <use xlink:href="#Lora-Regular-366" transform="translate(141.890625 0)"/>
    </g>
   </g>
   <g id="text_18">
    <!-- 0.59 -->
    <g style="fill: #2f5d3f" transform="translate(318.815478 204.2) scale(0.075 -0.075)">
     <defs>
      <path id="Lora-Regular-367" d="M 1645 -102 
Q 1229 -102 969 22 
Q 710 147 595 332 
Q 480 518 480 685 
Q 480 826 550 922 
Q 621 1018 762 1024 
Q 915 1030 982 931 
Q 1050 832 1050 749 
Q 1050 614 960 486 
Q 1005 346 1155 243 
Q 1306 141 1613 141 
Q 1907 141 2105 281 
Q 2304 422 2425 656 
Q 2547 890 2611 1168 
Q 2675 1446 2697 1721 
Q 2720 1997 2720 2214 
Q 2560 1997 2291 1837 
Q 2022 1677 1645 1677 
Q 1261 1677 1001 1808 
Q 742 1939 592 2150 
Q 442 2362 374 2611 
Q 307 2861 307 3104 
Q 307 3520 492 3856 
Q 678 4192 1017 4387 
Q 1357 4582 1818 4582 
Q 2272 4582 2563 4409 
Q 2854 4237 3020 3926 
Q 3187 3616 3254 3200 
Q 3322 2784 3322 2298 
Q 3322 2016 3286 1693 
Q 3251 1370 3152 1053 
Q 3053 736 2867 477 
Q 2682 218 2381 58 
Q 2080 -102 1645 -102 
z
M 1779 1965 
Q 1984 1965 2173 2064 
Q 2362 2163 2509 2323 
Q 2656 2483 2714 2669 
Q 2694 2970 2643 3264 
Q 2592 3558 2486 3801 
Q 2381 4045 2208 4192 
Q 2035 4339 1773 4339 
Q 1498 4339 1312 4182 
Q 1126 4026 1033 3776 
Q 941 3526 941 3245 
Q 941 3066 973 2845 
Q 1005 2624 1091 2422 
Q 1178 2221 1344 2093 
Q 1510 1965 1779 1965 
z
" transform="scale(0.015625)"/>
     </defs>
     <use xlink:href="#Lora-Regular-35e"/>
     <use xlink:href="#Lora-Regular-294" transform="translate(60.5 0)"/>
     <use xlink:href="#Lora-Regular-363" transform="translate(85.09375 0)"/>
     <use xlink:href="#Lora-Regular-367" transform="translate(139.59375 0)"/>
    </g>
   </g>
   <g id="text_19">
    <!-- 0.31 -->
    <g style="fill: #6f7268" transform="translate(180.219041 32.84) scale(0.075 -0.075)">
     <use xlink:href="#Lora-Regular-35e"/>
     <use xlink:href="#Lora-Regular-294" transform="translate(60.5 0)"/>
     <use xlink:href="#Lora-Regular-361" transform="translate(85.09375 0)"/>
     <use xlink:href="#Lora-Regular-35f" transform="translate(140.796875 0)"/>
    </g>
   </g>
   <g id="text_20">
    <!-- 0.32 -->
    <g style="fill: #6f7268" transform="translate(183.190336 75.68) scale(0.075 -0.075)">
     <use xlink:href="#Lora-Regular-35e"/>
     <use xlink:href="#Lora-Regular-294" transform="translate(60.5 0)"/>
     <use xlink:href="#Lora-Regular-361" transform="translate(85.09375 0)"/>
     <use xlink:href="#Lora-Regular-360" transform="translate(140.796875 0)"/>
    </g>
   </g>
   <g id="text_21">
    <!-- 0.34 -->
    <g style="fill: #6f7268" transform="translate(196.58487 118.52) scale(0.075 -0.075)">
     <use xlink:href="#Lora-Regular-35e"/>
     <use xlink:href="#Lora-Regular-294" transform="translate(60.5 0)"/>
     <use xlink:href="#Lora-Regular-361" transform="translate(85.09375 0)"/>
     <use xlink:href="#Lora-Regular-362" transform="translate(140.796875 0)"/>
    </g>
   </g>
   <g id="text_22">
    <!-- 0.33 -->
    <g style="fill: #6f7268" transform="translate(188.103086 161.36) scale(0.075 -0.075)">
     <use xlink:href="#Lora-Regular-35e"/>
     <use xlink:href="#Lora-Regular-294" transform="translate(60.5 0)"/>
     <use xlink:href="#Lora-Regular-361" transform="translate(85.09375 0)"/>
     <use xlink:href="#Lora-Regular-361" transform="translate(140.796875 0)"/>
    </g>
   </g>
   <g id="text_23">
    <!-- 0.30 -->
    <g style="fill: #6f7268" transform="translate(175.150731 204.2) scale(0.075 -0.075)">
     <use xlink:href="#Lora-Regular-35e"/>
     <use xlink:href="#Lora-Regular-294" transform="translate(60.5 0)"/>
     <use xlink:href="#Lora-Regular-361" transform="translate(85.09375 0)"/>
     <use xlink:href="#Lora-Regular-35e" transform="translate(140.796875 0)"/>
    </g>
   </g>
   <g id="text_24">
    <!-- Five systems, two benchmarks: the order is not the same -->
    <g style="fill: #1c1e1a" transform="translate(133.571875 19.272) scale(0.12 -0.12)">
     <defs>
      <path id="Lora-SemiBold-39" d="M 333 0 
L 333 352 
Q 595 365 688 489 
Q 781 614 781 986 
L 781 3539 
Q 781 3699 787 3846 
Q 794 3994 806 4077 
Q 698 4077 557 4070 
Q 416 4064 333 4058 
L 333 4480 
L 3456 4480 
L 3488 3277 
L 3136 3277 
Q 3136 3635 3014 3820 
Q 2893 4006 2707 4070 
Q 2522 4134 2330 4128 
L 2016 4122 
Q 1766 4115 1676 3980 
Q 1587 3846 1587 3488 
L 1587 2374 
L 2394 2374 
L 2362 2925 
L 2784 2925 
L 2784 1440 
L 2438 1440 
Q 2438 1715 2355 1836 
Q 2272 1958 2121 1987 
Q 1971 2016 1766 2003 
L 1587 1997 
L 1587 954 
Q 1587 781 1580 630 
Q 1574 480 1562 403 
Q 1683 410 1868 416 
Q 2054 422 2157 422 
L 2157 0 
L 333 0 
z
" transform="scale(0.015625)"/>
      <path id="Lora-SemiBold-fb" d="M 269 339 
Q 454 339 531 422 
Q 608 506 627 650 
Q 646 794 646 979 
L 646 2176 
Q 646 2285 652 2416 
Q 659 2547 672 2688 
Q 570 2682 438 2675 
Q 307 2669 224 2662 
L 224 3078 
Q 659 3078 867 3139 
Q 1075 3200 1146 3264 
L 1434 3264 
L 1434 915 
Q 1434 806 1430 665 
Q 1427 525 1408 390 
Q 1510 403 1625 406 
Q 1741 410 1824 410 
L 1824 0 
L 269 0 
L 269 339 
z
M 1005 3814 
Q 813 3814 688 3952 
Q 563 4090 563 4288 
Q 563 4486 694 4627 
Q 825 4768 1005 4768 
Q 1190 4768 1315 4627 
Q 1440 4486 1440 4288 
Q 1440 4090 1318 3952 
Q 1197 3814 1005 3814 
z
" transform="scale(0.015625)"/>
      <path id="Lora-SemiBold-15e" d="M 1466 -19 
L 486 2157 
Q 365 2438 336 2563 
Q 307 2688 288 2803 
L 38 2790 
L 38 3200 
L 1427 3200 
L 1427 2861 
Q 1274 2861 1226 2777 
Q 1178 2694 1200 2566 
Q 1222 2438 1280 2291 
L 1664 1370 
Q 1715 1254 1763 1129 
Q 1811 1005 1862 877 
L 1869 877 
Q 1914 998 1958 1123 
Q 2003 1248 2048 1376 
L 2400 2362 
Q 2458 2522 2509 2624 
Q 2560 2726 2605 2810 
L 2208 2790 
L 2208 3200 
L 3354 3200 
L 3354 2861 
Q 3206 2848 3097 2723 
Q 2989 2598 2905 2422 
Q 2822 2246 2752 2061 
L 1926 -19 
L 1466 -19 
z
" transform="scale(0.015625)"/>
      <path id="Lora-SemiBold-da" d="M 1798 -102 
Q 1338 -102 982 106 
Q 627 314 425 694 
Q 224 1075 224 1594 
Q 224 2042 422 2432 
Q 621 2822 982 3062 
Q 1344 3302 1824 3302 
Q 2182 3302 2502 3158 
Q 2822 3014 3024 2681 
Q 3226 2349 3219 1779 
L 1069 1741 
Q 1069 1344 1161 1037 
Q 1254 730 1465 557 
Q 1677 384 2022 384 
Q 2246 384 2528 505 
Q 2810 627 3008 883 
L 3251 659 
Q 3040 352 2784 189 
Q 2528 26 2272 -38 
Q 2016 -102 1798 -102 
z
M 1101 2125 
L 2432 2125 
Q 2426 2509 2275 2713 
Q 2125 2918 1850 2918 
Q 1536 2918 1347 2713 
Q 1158 2509 1101 2125 
z
" transform="scale(0.015625)"/>
      <path id="Lora-SemiBold-28d" transform="scale(0.015625)"/>
      <path id="Lora-SemiBold-13d" d="M 1690 -102 
Q 1395 -102 1139 -28 
Q 883 45 730 160 
L 749 -45 
L 333 -45 
L 301 1056 
L 646 1056 
Q 666 838 797 665 
Q 928 493 1145 390 
Q 1363 288 1626 288 
Q 1811 288 1980 381 
Q 2150 474 2150 672 
Q 2150 883 1948 992 
Q 1747 1101 1408 1229 
Q 1210 1306 1011 1389 
Q 813 1472 646 1590 
Q 480 1709 377 1881 
Q 275 2054 275 2304 
Q 275 2528 390 2758 
Q 506 2989 765 3145 
Q 1024 3302 1446 3302 
Q 1619 3302 1836 3248 
Q 2054 3194 2221 3066 
L 2214 3270 
L 2630 3270 
L 2630 2144 
L 2285 2144 
Q 2240 2470 2019 2697 
Q 1798 2925 1427 2925 
Q 1222 2925 1081 2822 
Q 941 2720 941 2534 
Q 941 2368 1049 2269 
Q 1158 2170 1344 2099 
Q 1530 2029 1747 1946 
Q 2048 1837 2294 1699 
Q 2541 1562 2688 1363 
Q 2835 1165 2835 870 
Q 2835 538 2668 323 
Q 2502 109 2240 3 
Q 1978 -102 1690 -102 
z
" transform="scale(0.015625)"/>
      <path id="Lora-SemiBold-165" d="M 890 -1734 
Q 659 -1734 499 -1606 
Q 339 -1478 339 -1254 
Q 339 -1101 441 -979 
Q 544 -858 704 -858 
Q 845 -851 931 -950 
Q 1018 -1050 1018 -1190 
Q 1018 -1210 1014 -1232 
Q 1011 -1254 1011 -1280 
Q 1024 -1286 1056 -1280 
Q 1190 -1248 1331 -973 
Q 1408 -826 1491 -611 
Q 1574 -397 1651 -134 
L 646 1933 
Q 467 2285 409 2477 
Q 352 2669 326 2803 
L 32 2790 
L 32 3200 
L 1536 3200 
L 1536 2861 
L 1523 2861 
Q 1280 2835 1254 2672 
Q 1229 2509 1338 2278 
L 2010 787 
Q 2099 1030 2214 1398 
Q 2330 1766 2464 2170 
Q 2515 2323 2592 2521 
Q 2669 2720 2746 2810 
L 2355 2790 
L 2355 3200 
L 3450 3200 
L 3450 2861 
Q 3238 2803 3110 2601 
Q 2982 2400 2880 2099 
L 2080 -166 
Q 1894 -698 1734 -1043 
Q 1574 -1389 1376 -1561 
Q 1178 -1734 890 -1734 
z
" transform="scale(0.015625)"/>
      <path id="Lora-SemiBold-145" d="M 1517 -102 
Q 1338 -102 1168 -60 
Q 998 -19 860 105 
Q 723 230 640 473 
Q 557 717 557 1107 
L 570 2758 
L 115 2752 
L 115 3200 
Q 307 3206 486 3331 
Q 666 3456 800 3661 
Q 934 3866 979 4096 
L 1370 4096 
L 1363 3200 
L 2266 3200 
L 2266 2790 
L 1363 2771 
L 1357 1126 
Q 1357 838 1443 627 
Q 1530 416 1773 416 
Q 1894 416 2051 493 
Q 2208 570 2368 800 
L 2630 563 
Q 2413 243 2185 102 
Q 1958 -38 1779 -70 
Q 1600 -102 1517 -102 
z
" transform="scale(0.015625)"/>
      <path id="Lora-SemiBold-115" d="M 269 0 
L 269 339 
Q 454 339 531 422 
Q 608 506 627 650 
Q 646 794 646 979 
L 646 2182 
Q 646 2298 652 2426 
Q 659 2554 672 2688 
Q 570 2682 438 2675 
Q 307 2669 224 2662 
L 224 3078 
Q 659 3078 860 3139 
Q 1062 3200 1133 3264 
L 1402 3264 
Q 1414 3200 1417 3107 
Q 1421 3014 1427 2938 
Q 1638 3104 1888 3203 
Q 2138 3302 2374 3302 
Q 2675 3302 2876 3193 
Q 3078 3085 3194 2880 
Q 3418 3066 3699 3184 
Q 3981 3302 4243 3302 
Q 4774 3302 5040 2992 
Q 5306 2682 5299 1939 
L 5299 915 
Q 5299 806 5292 665 
Q 5286 525 5274 390 
Q 5370 403 5488 406 
Q 5606 410 5683 410 
L 5683 0 
L 4166 0 
L 4166 339 
Q 4416 339 4461 518 
Q 4506 698 4506 979 
L 4506 1933 
Q 4506 2394 4358 2592 
Q 4211 2790 3942 2790 
Q 3763 2797 3600 2726 
Q 3437 2656 3315 2547 
Q 3373 2310 3373 1984 
Q 3373 1715 3373 1449 
Q 3373 1184 3366 915 
Q 3366 806 3363 665 
Q 3360 525 3341 390 
Q 3443 403 3558 406 
Q 3674 410 3757 410 
L 3757 0 
L 2221 0 
L 2221 339 
Q 2394 339 2467 422 
Q 2541 506 2560 650 
Q 2579 794 2579 979 
L 2579 1946 
Q 2579 2406 2441 2601 
Q 2304 2797 2035 2803 
Q 1862 2803 1705 2726 
Q 1549 2650 1434 2541 
Q 1434 2464 1434 2381 
Q 1434 2298 1434 2214 
L 1434 915 
Q 1434 806 1430 665 
Q 1427 525 1408 390 
Q 1510 403 1616 406 
Q 1722 410 1798 410 
L 1798 0 
L 269 0 
z
" transform="scale(0.015625)"/>
      <path id="Lora-SemiBold-295" d="M 749 -1178 
L 525 -1018 
Q 589 -928 675 -761 
Q 762 -595 819 -393 
Q 877 -192 864 -6 
Q 794 -32 723 -32 
Q 563 -32 444 67 
Q 326 166 326 358 
Q 326 544 444 672 
Q 563 800 755 800 
Q 1024 806 1161 617 
Q 1299 429 1299 160 
Q 1299 -128 1158 -496 
Q 1018 -864 749 -1178 
z
" transform="scale(0.015625)"/>
      <path id="Lora-SemiBold-15f" d="M 1286 -19 
L 486 2278 
Q 410 2509 381 2605 
Q 352 2701 326 2803 
L 45 2790 
L 45 3200 
L 1523 3200 
L 1523 2861 
Q 1293 2854 1261 2694 
Q 1229 2534 1299 2298 
L 1542 1478 
Q 1632 1184 1702 870 
Q 1747 1018 1788 1181 
Q 1830 1344 1894 1562 
L 2400 3200 
L 2950 3200 
L 3507 1402 
Q 3552 1267 3593 1113 
Q 3635 960 3680 826 
Q 3712 954 3757 1104 
Q 3802 1254 3846 1382 
L 4154 2330 
Q 4198 2483 4240 2598 
Q 4282 2714 4339 2810 
L 3974 2790 
L 3974 3200 
L 5152 3200 
L 5152 2861 
Q 4966 2861 4848 2745 
Q 4730 2630 4662 2486 
Q 4595 2342 4557 2234 
L 3763 -19 
L 3226 -19 
L 2726 1472 
Q 2688 1600 2621 1814 
Q 2554 2029 2502 2221 
Q 2464 2067 2409 1875 
Q 2355 1683 2304 1516 
Q 2253 1350 2221 1267 
L 1786 -19 
L 1286 -19 
z
" transform="scale(0.015625)"/>
      <path id="Lora-SemiBold-11d" d="M 1843 -102 
Q 1382 -102 1014 99 
Q 646 301 432 669 
Q 218 1037 218 1530 
Q 218 2048 435 2448 
Q 653 2848 1021 3075 
Q 1389 3302 1830 3302 
Q 2285 3302 2649 3100 
Q 3014 2899 3228 2531 
Q 3443 2163 3443 1664 
Q 3443 1139 3235 742 
Q 3027 346 2665 122 
Q 2304 -102 1843 -102 
z
M 1875 288 
Q 2157 288 2313 467 
Q 2470 646 2531 924 
Q 2592 1203 2592 1498 
Q 2592 1747 2553 2003 
Q 2515 2259 2425 2467 
Q 2336 2675 2185 2800 
Q 2035 2925 1824 2925 
Q 1542 2918 1376 2739 
Q 1210 2560 1136 2285 
Q 1062 2010 1062 1702 
Q 1062 1357 1145 1027 
Q 1229 698 1408 490 
Q 1587 282 1875 288 
z
" transform="scale(0.015625)"/>
      <path id="Lora-SemiBold-cf" d="M 429 3744 
Q 429 3853 432 3984 
Q 435 4115 448 4256 
Q 346 4250 214 4243 
Q 83 4237 0 4230 
L 0 4646 
Q 442 4646 650 4707 
Q 858 4768 922 4832 
L 1216 4832 
L 1216 2944 
Q 1421 3136 1651 3219 
Q 1882 3302 2112 3302 
Q 2509 3302 2813 3104 
Q 3117 2906 3289 2541 
Q 3462 2176 3462 1683 
Q 3462 1158 3257 755 
Q 3053 352 2694 125 
Q 2336 -102 1869 -102 
Q 1683 -102 1417 -28 
Q 1152 45 934 282 
L 755 0 
L 429 0 
L 429 3744 
z
M 1216 973 
Q 1216 717 1299 569 
Q 1382 422 1510 361 
Q 1638 301 1779 294 
Q 2074 288 2259 464 
Q 2445 640 2528 928 
Q 2611 1216 2611 1562 
Q 2611 1901 2528 2189 
Q 2445 2477 2269 2646 
Q 2093 2816 1818 2816 
Q 1645 2810 1485 2726 
Q 1325 2643 1216 2509 
L 1216 973 
z
" transform="scale(0.015625)"/>
      <path id="Lora-SemiBold-116" d="M 269 0 
L 269 339 
Q 454 339 531 422 
Q 608 506 627 650 
Q 646 794 646 979 
L 646 2182 
Q 646 2298 652 2426 
Q 659 2554 672 2688 
Q 570 2682 438 2675 
Q 307 2669 224 2662 
L 224 3078 
Q 659 3078 860 3139 
Q 1062 3200 1133 3264 
L 1402 3264 
Q 1421 3155 1417 3104 
Q 1414 3053 1440 2918 
Q 1632 3078 1907 3190 
Q 2182 3302 2400 3302 
Q 2976 3302 3225 2960 
Q 3475 2618 3475 1882 
L 3475 915 
Q 3475 806 3472 665 
Q 3469 525 3450 390 
Q 3558 403 3670 406 
Q 3782 410 3866 410 
L 3866 0 
L 2310 0 
L 2310 339 
Q 2496 339 2576 422 
Q 2656 506 2675 650 
Q 2694 794 2694 979 
L 2688 1888 
Q 2688 2349 2550 2576 
Q 2413 2803 2099 2803 
Q 1914 2797 1734 2713 
Q 1555 2630 1434 2502 
Q 1440 2426 1440 2342 
Q 1440 2259 1440 2176 
L 1434 915 
Q 1434 806 1430 665 
Q 1427 525 1408 390 
Q 1510 403 1625 406 
Q 1741 410 1824 410 
L 1824 0 
L 269 0 
z
" transform="scale(0.015625)"/>
      <path id="Lora-SemiBold-d0" d="M 1798 -102 
Q 1363 -102 1004 90 
Q 646 282 432 650 
Q 218 1018 218 1536 
Q 218 2003 429 2406 
Q 640 2810 1017 3056 
Q 1395 3302 1888 3302 
Q 2278 3302 2547 3180 
Q 2816 3059 2957 2867 
Q 3098 2675 3098 2458 
Q 3098 2285 2998 2157 
Q 2899 2029 2714 2022 
Q 2496 2016 2409 2147 
Q 2323 2278 2323 2394 
Q 2323 2458 2342 2531 
Q 2362 2605 2406 2669 
Q 2362 2784 2259 2838 
Q 2157 2893 2048 2909 
Q 1939 2925 1875 2925 
Q 1523 2912 1292 2601 
Q 1062 2291 1062 1709 
Q 1062 1357 1161 1059 
Q 1261 762 1465 579 
Q 1670 397 1990 390 
Q 2272 384 2534 528 
Q 2797 672 2963 902 
L 3219 666 
Q 2899 211 2518 54 
Q 2138 -102 1798 -102 
z
" transform="scale(0.015625)"/>
      <path id="Lora-SemiBold-f7" d="M 2227 339 
Q 2413 339 2493 422 
Q 2573 506 2589 650 
Q 2605 794 2605 979 
L 2605 1888 
Q 2598 2349 2457 2573 
Q 2317 2797 2016 2797 
Q 1830 2797 1648 2713 
Q 1466 2630 1350 2509 
L 1350 915 
Q 1350 806 1344 665 
Q 1338 525 1318 390 
Q 1427 403 1539 406 
Q 1651 410 1734 410 
L 1734 0 
L 179 0 
L 179 339 
Q 365 339 445 422 
Q 525 506 541 650 
Q 557 794 557 979 
L 557 3744 
Q 557 3853 563 3984 
Q 570 4115 582 4256 
Q 480 4250 349 4243 
Q 218 4237 134 4230 
L 134 4646 
Q 570 4646 778 4707 
Q 986 4768 1056 4832 
L 1350 4832 
L 1350 2925 
Q 1542 3078 1820 3190 
Q 2099 3302 2323 3302 
Q 2899 3302 3145 2960 
Q 3392 2618 3392 1882 
L 3398 915 
Q 3398 806 3392 665 
Q 3386 525 3373 390 
Q 3469 403 3584 406 
Q 3699 410 3782 410 
L 3782 0 
L 2227 0 
L 2227 339 
z
" transform="scale(0.015625)"/>
      <path id="Lora-SemiBold-b7" d="M 2106 0 
Q 2086 96 2083 163 
Q 2080 230 2074 320 
Q 1850 96 1606 -3 
Q 1363 -102 1101 -102 
Q 666 -102 432 134 
Q 198 371 198 717 
Q 198 1018 364 1235 
Q 531 1453 800 1593 
Q 1069 1734 1395 1801 
Q 1722 1869 2042 1882 
L 2042 2234 
Q 2042 2419 2000 2576 
Q 1958 2733 1849 2825 
Q 1741 2918 1530 2918 
Q 1382 2912 1241 2857 
Q 1101 2803 1018 2688 
Q 1069 2630 1081 2563 
Q 1094 2496 1094 2445 
Q 1094 2330 1004 2208 
Q 915 2086 717 2086 
Q 544 2093 451 2208 
Q 358 2323 358 2483 
Q 358 2726 534 2908 
Q 710 3091 1011 3196 
Q 1312 3302 1683 3302 
Q 2234 3302 2528 3014 
Q 2822 2726 2816 2093 
Q 2816 1754 2813 1501 
Q 2810 1248 2810 915 
Q 2810 819 2806 675 
Q 2803 531 2784 390 
Q 3027 410 3213 416 
L 3213 0 
L 2106 0 
z
M 2035 1504 
Q 1779 1485 1542 1408 
Q 1306 1331 1155 1184 
Q 1005 1037 1011 819 
Q 1018 621 1139 528 
Q 1261 435 1421 435 
Q 1600 435 1753 512 
Q 1907 589 2035 717 
Q 2035 781 2035 851 
Q 2035 922 2035 992 
Q 2035 1082 2035 1216 
Q 2035 1350 2035 1504 
z
" transform="scale(0.015625)"/>
      <path id="Lora-SemiBold-139" d="M 269 339 
Q 454 339 531 422 
Q 608 506 627 650 
Q 646 794 646 979 
L 646 2182 
Q 646 2298 652 2426 
Q 659 2554 672 2688 
Q 570 2682 438 2675 
Q 307 2669 224 2669 
L 224 3078 
L 461 3078 
Q 717 3078 889 3139 
Q 1062 3200 1133 3264 
L 1402 3264 
Q 1414 3187 1420 3020 
Q 1427 2854 1427 2688 
Q 1645 2976 1894 3139 
Q 2144 3302 2413 3302 
Q 2618 3302 2774 3187 
Q 2931 3072 2931 2816 
Q 2931 2688 2838 2547 
Q 2746 2406 2528 2413 
Q 2394 2413 2275 2499 
Q 2157 2586 2150 2778 
Q 2016 2784 1872 2681 
Q 1728 2579 1613 2432 
Q 1498 2285 1434 2131 
L 1440 915 
Q 1440 806 1433 665 
Q 1427 525 1414 390 
Q 1510 403 1628 406 
Q 1747 410 1824 410 
L 1824 0 
L 269 0 
L 269 339 
z
" transform="scale(0.015625)"/>
      <path id="Lora-SemiBold-10c" d="M 179 0 
L 179 339 
Q 365 339 445 422 
Q 525 506 544 650 
Q 563 794 563 979 
L 563 3744 
Q 563 3853 566 3984 
Q 570 4115 589 4256 
Q 480 4250 349 4243 
Q 218 4237 134 4230 
L 134 4646 
Q 570 4646 778 4707 
Q 986 4768 1056 4832 
L 1350 4832 
L 1350 1875 
L 1638 1875 
L 2208 2502 
Q 2298 2605 2365 2675 
Q 2432 2746 2502 2797 
L 2131 2790 
L 2131 3200 
L 3475 3200 
L 3475 2861 
Q 3142 2829 2908 2646 
Q 2675 2464 2528 2304 
L 2093 1818 
Q 2278 1728 2502 1440 
L 2938 870 
Q 2982 813 3084 685 
Q 3187 557 3318 448 
Q 3450 339 3590 339 
L 3590 0 
L 2906 0 
Q 2707 0 2550 157 
Q 2394 314 2202 570 
Q 2003 838 1824 1104 
Q 1645 1370 1536 1498 
L 1350 1491 
L 1350 915 
Q 1350 806 1347 665 
Q 1344 525 1325 390 
Q 1427 403 1542 406 
Q 1658 410 1741 410 
L 1741 0 
L 179 0 
z
" transform="scale(0.015625)"/>
      <path id="Lora-SemiBold-296" d="M 800 -102 
Q 614 -102 489 35 
Q 364 173 364 365 
Q 364 563 495 700 
Q 627 838 800 838 
Q 985 838 1106 700 
Q 1228 563 1228 365 
Q 1228 173 1110 35 
Q 992 -102 800 -102 
z
M 800 2477 
Q 614 2477 489 2614 
Q 364 2752 364 2944 
Q 364 3142 495 3279 
Q 627 3417 800 3417 
Q 985 3417 1106 3279 
Q 1228 3142 1228 2944 
Q 1228 2752 1110 2614 
Q 992 2477 800 2477 
z
" transform="scale(0.015625)"/>
      <path id="Lora-SemiBold-d6" d="M 1549 -102 
Q 1165 -102 864 96 
Q 563 294 393 659 
Q 224 1024 224 1517 
Q 224 2035 429 2438 
Q 634 2842 995 3072 
Q 1357 3302 1830 3302 
Q 2016 3302 2179 3260 
Q 2342 3219 2464 3168 
L 2464 3738 
Q 2464 3834 2467 3974 
Q 2470 4115 2483 4256 
Q 2374 4243 2243 4240 
Q 2112 4237 2029 4230 
L 2029 4646 
Q 2470 4646 2678 4707 
Q 2886 4768 2950 4832 
L 3245 4832 
L 3245 915 
Q 3245 819 3238 675 
Q 3232 531 3219 390 
Q 3462 410 3648 416 
L 3648 0 
L 2534 0 
Q 2522 83 2512 156 
Q 2502 230 2490 307 
Q 2291 96 2051 -3 
Q 1811 -102 1549 -102 
z
M 1850 390 
Q 2029 390 2192 489 
Q 2355 589 2464 736 
Q 2458 826 2458 918 
Q 2458 1011 2458 1107 
L 2464 2746 
Q 2246 2906 1920 2906 
Q 1619 2899 1430 2720 
Q 1242 2541 1155 2243 
Q 1069 1946 1075 1600 
Q 1075 1286 1158 1011 
Q 1242 736 1411 563 
Q 1581 390 1850 390 
z
" transform="scale(0.015625)"/>
     </defs>
     <use xlink:href="#Lora-SemiBold-39"/>
     <use xlink:href="#Lora-SemiBold-fb" transform="translate(55.390625 0)"/>
     <use xlink:href="#Lora-SemiBold-15e" transform="translate(86.09375 0)"/>
     <use xlink:href="#Lora-SemiBold-da" transform="translate(137.796875 0)"/>
     <use xlink:href="#Lora-SemiBold-28d" transform="translate(191.703125 0)"/>
     <use xlink:href="#Lora-SemiBold-13d" transform="translate(218 0)"/>
     <use xlink:href="#Lora-SemiBold-165" transform="translate(265.796875 0)"/>
     <use xlink:href="#Lora-SemiBold-13d" transform="translate(320.09375 0)"/>
     <use xlink:href="#Lora-SemiBold-145" transform="translate(367.890625 0)"/>
     <use xlink:href="#Lora-SemiBold-da" transform="translate(408.296875 0)"/>
     <use xlink:href="#Lora-SemiBold-115" transform="translate(462.203125 0)"/>
     <use xlink:href="#Lora-SemiBold-13d" transform="translate(553.296875 0)"/>
     <use xlink:href="#Lora-SemiBold-295" transform="translate(601.09375 0)"/>
     <use xlink:href="#Lora-SemiBold-28d" transform="translate(626.1875 0)"/>
     <use xlink:href="#Lora-SemiBold-145" transform="translate(652.484375 0)"/>
     <use xlink:href="#Lora-SemiBold-15f" transform="translate(693.484375 0)"/>
     <use xlink:href="#Lora-SemiBold-11d" transform="translate(773.1875 0)"/>
     <use xlink:href="#Lora-SemiBold-28d" transform="translate(830.390625 0)"/>
     <use xlink:href="#Lora-SemiBold-cf" transform="translate(856.6875 0)"/>
     <use xlink:href="#Lora-SemiBold-da" transform="translate(914.28125 0)"/>
     <use xlink:href="#Lora-SemiBold-116" transform="translate(968.1875 0)"/>
     <use xlink:href="#Lora-SemiBold-d0" transform="translate(1030.984375 0)"/>
     <use xlink:href="#Lora-SemiBold-f7" transform="translate(1083.28125 0)"/>
     <use xlink:href="#Lora-SemiBold-115" transform="translate(1144.6875 0)"/>
     <use xlink:href="#Lora-SemiBold-b7" transform="translate(1235.78125 0)"/>
     <use xlink:href="#Lora-SemiBold-139" transform="translate(1287.875 0)"/>
     <use xlink:href="#Lora-SemiBold-10c" transform="translate(1333.578125 0)"/>
     <use xlink:href="#Lora-SemiBold-13d" transform="translate(1391.078125 0)"/>
     <use xlink:href="#Lora-SemiBold-296" transform="translate(1438.875 0)"/>
     <use xlink:href="#Lora-SemiBold-28d" transform="translate(1463.875 0)"/>
     <use xlink:href="#Lora-SemiBold-145" transform="translate(1490.171875 0)"/>
     <use xlink:href="#Lora-SemiBold-f7" transform="translate(1530.578125 0)"/>
     <use xlink:href="#Lora-SemiBold-da" transform="translate(1591.984375 0)"/>
     <use xlink:href="#Lora-SemiBold-28d" transform="translate(1645.890625 0)"/>
     <use xlink:href="#Lora-SemiBold-11d" transform="translate(1672.1875 0)"/>
     <use xlink:href="#Lora-SemiBold-139" transform="translate(1729.390625 0)"/>
     <use xlink:href="#Lora-SemiBold-d6" transform="translate(1775 0)"/>
     <use xlink:href="#Lora-SemiBold-da" transform="translate(1834.703125 0)"/>
     <use xlink:href="#Lora-SemiBold-139" transform="translate(1888.609375 0)"/>
     <use xlink:href="#Lora-SemiBold-28d" transform="translate(1935.015625 0)"/>
     <use xlink:href="#Lora-SemiBold-fb" transform="translate(1961.3125 0)"/>
     <use xlink:href="#Lora-SemiBold-13d" transform="translate(1992.515625 0)"/>
     <use xlink:href="#Lora-SemiBold-28d" transform="translate(2040.3125 0)"/>
     <use xlink:href="#Lora-SemiBold-116" transform="translate(2066.609375 0)"/>
     <use xlink:href="#Lora-SemiBold-11d" transform="translate(2129.40625 0)"/>
     <use xlink:href="#Lora-SemiBold-145" transform="translate(2186.609375 0)"/>
     <use xlink:href="#Lora-SemiBold-28d" transform="translate(2227.015625 0)"/>
     <use xlink:href="#Lora-SemiBold-145" transform="translate(2253.3125 0)"/>
     <use xlink:href="#Lora-SemiBold-f7" transform="translate(2293.71875 0)"/>
     <use xlink:href="#Lora-SemiBold-da" transform="translate(2355.125 0)"/>
     <use xlink:href="#Lora-SemiBold-28d" transform="translate(2409.03125 0)"/>
     <use xlink:href="#Lora-SemiBold-13d" transform="translate(2435.328125 0)"/>
     <use xlink:href="#Lora-SemiBold-b7" transform="translate(2483.125 0)"/>
     <use xlink:href="#Lora-SemiBold-115" transform="translate(2535.21875 0)"/>
     <use xlink:href="#Lora-SemiBold-da" transform="translate(2626.3125 0)"/>
    </g>
   </g>
   <g id="legend_1">
    <g id="line2d_20">
     <g>
      <use xlink:href="#m35a4f114a3" x="259.448242" y="118.091" style="fill: #2f5d3f; stroke: #ffffff; stroke-width: 0.8"/>
     </g>
    </g>
    <g id="text_25">
     <!-- scifact -->
     <g style="fill: #1c1e1a" transform="translate(274.748242 121.066) scale(0.085 -0.085)">
      <defs>
       <path id="Lora-Regular-ef" d="M 685 3334 
Q 685 4045 944 4454 
Q 1203 4864 1837 4864 
Q 1978 4864 2134 4816 
Q 2291 4768 2406 4662 
Q 2522 4557 2522 4390 
Q 2522 4269 2454 4185 
Q 2387 4102 2259 4102 
Q 2106 4096 2045 4195 
Q 1984 4294 1984 4365 
Q 1984 4403 1990 4441 
Q 1997 4480 2016 4525 
Q 1971 4582 1891 4608 
Q 1811 4634 1741 4634 
Q 1542 4634 1433 4518 
Q 1325 4403 1280 4230 
Q 1235 4058 1235 3872 
L 1235 3200 
L 2099 3200 
L 2099 2950 
L 1235 2931 
L 1242 678 
Q 1242 550 1238 451 
Q 1235 352 1216 243 
Q 1318 250 1417 253 
Q 1517 256 1619 262 
L 1619 0 
L 314 0 
L 314 192 
Q 512 192 589 291 
Q 666 390 678 566 
Q 691 742 691 973 
L 685 2925 
L 160 2912 
L 160 3200 
L 685 3200 
L 685 3334 
z
" transform="scale(0.015625)"/>
      </defs>
      <use xlink:href="#Lora-Regular-13d"/>
      <use xlink:href="#Lora-Regular-d0" transform="translate(46.296875 0)"/>
      <use xlink:href="#Lora-Regular-fb" transform="translate(99.5 0)"/>
      <use xlink:href="#Lora-Regular-ef" transform="translate(127.59375 0)"/>
      <use xlink:href="#Lora-Regular-b7" transform="translate(161.390625 0)"/>
      <use xlink:href="#Lora-Regular-d0" transform="translate(212.984375 0)"/>
      <use xlink:href="#Lora-Regular-145" transform="translate(265.6875 0)"/>
     </g>
    </g>
    <g id="line2d_21">
     <g>
      <use xlink:href="#mfd3c3a0383" x="259.448242" y="133.221" style="fill: #6f7268; stroke: #ffffff; stroke-width: 0.8; stroke-linejoin: miter"/>
     </g>
    </g>
    <g id="text_26">
     <!-- nfcorpus -->
     <g style="fill: #1c1e1a" transform="translate(274.748242 136.196) scale(0.085 -0.085)">
      <defs>
       <path id="Lora-Regular-136" d="M 224 -1632 
L 224 -1440 
Q 422 -1440 499 -1341 
Q 576 -1242 589 -1066 
Q 602 -890 602 -659 
L 614 2432 
Q 614 2534 617 2636 
Q 621 2739 640 2848 
Q 525 2842 413 2835 
Q 301 2829 186 2822 
L 186 3091 
Q 467 3091 611 3116 
Q 755 3142 822 3180 
Q 890 3219 934 3264 
L 1126 3264 
Q 1133 3200 1139 3113 
Q 1146 3027 1152 2918 
Q 1344 3091 1609 3196 
Q 1875 3302 2144 3302 
Q 2515 3302 2835 3110 
Q 3155 2918 3353 2563 
Q 3552 2208 3552 1715 
Q 3552 1171 3325 761 
Q 3098 352 2726 125 
Q 2355 -102 1920 -102 
Q 1478 -102 1152 109 
L 1152 -954 
Q 1152 -1082 1149 -1181 
Q 1146 -1280 1126 -1389 
Q 1229 -1382 1328 -1379 
Q 1427 -1376 1530 -1370 
L 1530 -1632 
L 224 -1632 
z
M 1907 154 
Q 2214 154 2435 342 
Q 2656 531 2774 860 
Q 2893 1190 2893 1613 
Q 2893 1958 2793 2275 
Q 2694 2592 2480 2790 
Q 2266 2989 1914 2989 
Q 1696 2989 1494 2883 
Q 1293 2778 1158 2630 
Q 1158 2605 1161 2557 
Q 1165 2509 1165 2390 
Q 1165 2272 1165 2038 
Q 1165 1805 1161 1408 
Q 1158 1011 1158 403 
Q 1485 154 1907 154 
z
" transform="scale(0.015625)"/>
       <path id="Lora-Regular-14a" d="M 1632 -102 
Q 1286 -102 1052 26 
Q 819 154 700 461 
Q 582 768 582 1293 
L 582 2432 
Q 582 2534 585 2636 
Q 589 2739 608 2848 
Q 499 2842 387 2838 
Q 275 2835 166 2829 
L 166 3091 
L 365 3091 
Q 640 3091 765 3145 
Q 890 3200 960 3264 
L 1146 3264 
L 1146 1312 
Q 1146 762 1302 490 
Q 1459 218 1837 224 
Q 2080 230 2301 374 
Q 2522 518 2656 717 
L 2656 2362 
Q 2656 2515 2662 2627 
Q 2669 2739 2688 2848 
Q 2573 2842 2457 2838 
Q 2342 2835 2227 2829 
L 2227 3091 
L 2426 3091 
Q 2701 3091 2825 3145 
Q 2950 3200 3021 3264 
L 3206 3264 
L 3200 845 
Q 3200 742 3193 556 
Q 3187 371 3174 243 
Q 3290 250 3405 256 
Q 3520 262 3635 269 
L 3635 0 
L 2720 0 
Q 2701 109 2691 205 
Q 2682 301 2675 384 
Q 2477 186 2195 42 
Q 1914 -102 1632 -102 
z
" transform="scale(0.015625)"/>
      </defs>
      <use xlink:href="#Lora-Regular-116"/>
      <use xlink:href="#Lora-Regular-ef" transform="translate(60.703125 0)"/>
      <use xlink:href="#Lora-Regular-d0" transform="translate(94 0)"/>
      <use xlink:href="#Lora-Regular-11d" transform="translate(146.703125 0)"/>
      <use xlink:href="#Lora-Regular-139" transform="translate(205.203125 0)"/>
      <use xlink:href="#Lora-Regular-136" transform="translate(248.5 0)"/>
      <use xlink:href="#Lora-Regular-14a" transform="translate(308.203125 0)"/>
      <use xlink:href="#Lora-Regular-13d" transform="translate(367.90625 0)"/>
     </g>
    </g>
   </g>
  </g>
 </g>
 <defs>
  <clipPath id="p449303773f">
   <rect x="133.571875" y="31.272" width="293.76" height="188.496"/>
  </clipPath>
 </defs>
</svg>
